<svg xmlns="http://www.w3.org/2000/svg" width="114.994" height="129.932" viewBox="0 0 114.994 129.932">
  <path id="Path_648" data-name="Path 648" d="M920.008,792.651c-.675-.654-1.351-1.31-2.091-2.029-.779,4.7-1.552,9.366-2.364,14.273.823-.362,1.542-.719,2.3-1a6.474,6.474,0,0,1,1.276-.187c-.1.384-.041.939-.323,1.119-.977.633-2.073,1.138-3.3,1.782.488.346,1.093.725,1.621,1.166.475.4.868.865,1.3,1.3-.141.161-.281.323-.423.479q-1.765-.648-3.521-1.3c-1.542,5.246-3.1,10.552-4.7,15.993a7.251,7.251,0,0,1,1.36-.5,4.456,4.456,0,0,1,1.178.133c-.145.3-.191.709-.453.887-.777.526-1.641.961-2.467,1.43.868,1.263,1.722,2.509,2.577,3.753-.122.08-.247.159-.37.241-1.542-.167-2.067-1.457-3.314-2.405-.577,2.307-1.106,4.433-1.681,6.747,2.354.048,4.517.095,6.681.133.48.008.963-.02,1.443-.01,2.241.047,2.74.42,2.983,2.29a22.7,22.7,0,0,1-.888,9.2,57.228,57.228,0,0,1-10.144,19.993c-1.737,2.2-3.164,4.581-4.806,6.841a11.1,11.1,0,0,1-4.833,4.257,31.6,31.6,0,0,1-6.9,1.875c-8.129,1.129-16.316.1-24.477.24-7.37.126-14.661-.618-21.982-1.142-5.458-.386-9.445-2.779-13.119-5.849a47.449,47.449,0,0,1-13.744-19.337c-1.391-3.483-2.541-7.038-3.723-10.579a8.5,8.5,0,0,1,.449-6.8c.553-1.092,1.519-1.478,3.865-1.411,1.16.036,2.32-.031,3.65-.056l-3-5.3c-1.1,1.455-.79,3.318-2.536,4.749-.63-1.884.313-3.362.606-4.876a.929.929,0,0,0-.256-.092c-.605-.028-1.212-.046-1.818-.067a15.161,15.161,0,0,1,1.38-1.09,14,14,0,0,1,1.54-.74c-.012-.107-.025-.214-.037-.321-.922-.069-1.847-.126-2.766-.217a3.566,3.566,0,0,1-1.13-.248c-.26-.122-.411-.406-.611-.617a2.493,2.493,0,0,1,.842-.316c1,.028,1.99.133,3.344.235-1.163-2.879-2.229-5.525-3.331-8.254-1.081,1.145-2.112,2.241-3.143,3.338-.163-.092-.324-.178-.484-.268.407-1.924,2.063-3.421,2.921-5.288l-4.792.7c-.19-1.159.749-1.127,1.528-1.269.745-.134,1.48-.307,2.429-.509-1.359-.9-3.159-.8-4.145-2.28,1.483.252,2.691.46,4.173.711-1.442-4.8-1.975-9.51-.508-14.424-1.817.607-3.388,1.129-4.96,1.655-.073-.124-.143-.25-.212-.373,1.049-1.405,2.9-1.944,4.621-2.766-1.148-.847-2.934-1.023-3.394-2.8,1.538.669,2.8,1.215,4.058,1.761.069-.07.135-.141.2-.211q-1.875-1.8-3.75-3.6c.125-.121.249-.24.373-.363,2.075.192,3.012,1.88,4.624,2.89,1.521-3.032,1.947-6.554,6.146-8.232-.531-.284-.916-.484-1.293-.694-2.975-1.658-4.947-3.847-4.987-6.967-.029-2.082,1.706-3.048,4.058-2.3a24.068,24.068,0,0,1,2.49,1.106c.137-.754.217-1.473.4-2.174.537-2.1,2.1-2.615,4.2-1.4.137.08.285.145.5.251a2.913,2.913,0,0,1,3.066-1.5,3.647,3.647,0,0,1,3.138,2.386c1.205,3.209.435,6.27-1.2,9.2a36.8,36.8,0,0,1-2.575,3.5c3.144-2.667,6.014-1.732,9.068.585a23.264,23.264,0,0,1,.793-13.846c-1.581.662-2.784,1.169-3.99,1.674l-.257-.3c.6-1.856,2.819-2.3,4.464-3.254-.558-1.547-2.4-2.524-2.586-4.156l.441-.284c.983.915,1.962,1.83,2.98,2.779,1.977-2.645,4.036-5.188,7.586-6.606-1.183-.673-2.3-1.243-3.333-1.907-2.471-1.591-3.878-3.661-3.806-6.343.044-1.678,1.313-2.654,3.26-2.266a31.257,31.257,0,0,1,4.057,1.393c.029-.276.052-.7.124-1.107a7.2,7.2,0,0,1,.341-1.515c1.028-2.488,3.579-2.872,5.6-.857a3.218,3.218,0,0,1,.359.6,9.786,9.786,0,0,0,.728-.7,3.287,3.287,0,0,1,3.259-1.244,3.331,3.331,0,0,1,2.774,2.126,8.035,8.035,0,0,1-.718,6.571,52.121,52.121,0,0,1-3.222,4.913c4.675,1.389,8.041,4.3,11.041,7.874.671-.648,1.247-1.27,1.913-1.817a3.347,3.347,0,0,1,1.064-.344c.01.34.18.767,0,1.006-.606.8-1.334,1.541-2.083,2.376a10.391,10.391,0,0,1,4.343,3.948c-.1.095-.2.188-.294.284-.916-.5-1.829-1.013-3.015-1.668,2.283,6.077,3.692,12.063,3.43,18.316l4.09-1.551c-.707-.953-1.446-1.935-2.169-2.924a6.468,6.468,0,0,1-1.152-4.351c.128-2.307,2.225-3.3,4.672-2.21.227.1.449.211.5.235.926-.635,1.688-1.537,2.627-1.7s2.052.42,3.53.78a2.954,2.954,0,0,1,3.988,2.774c.238,2.843-.288,5.5-2.775,7.57,1.283.855,2.494,1.657,4.02,2.67a29.783,29.783,0,0,1,3.14-13.371c-.431-.06-1-.139-1.712-.235.565-1.285,2.054-1.3,3.347-1.907-.615-.953-1.2-1.877-1.807-2.79-.212-.322-.539-.592-.715-.924-.1-.2-.012-.467-.008-.705.306.044.745,0,.9.149.917.921,1.771,1.888,2.716,2.918,1.954-1.866,3.95-3.888,7.191-4.728a8.345,8.345,0,0,0-.739-.55c-3.886-2.238-3.578-5.878-2.307-8.383.79-1.555,2.328-1.867,3.919-.836a21.1,21.1,0,0,1,1.982,1.661c.282-.443.536-.885.837-1.3a9.665,9.665,0,0,1,1.028-1.271c1.378-1.35,2.786-1.244,3.889.271.133.183.243.378.373.582a9.746,9.746,0,0,1,1.858-.8,2.92,2.92,0,0,1,3.546,2.48,6.1,6.1,0,0,1-1.618,4.344,20.836,20.836,0,0,1-1.9,1.967c-.637.591-1.359,1.115-2.192,1.792,6.41,2.108,7.378,6.713,7.738,11.778a10.542,10.542,0,0,1,1.809-1.082,4,4,0,0,1,1.406.067c-.184.323-.269.743-.566.957-2.38,1.717-2.394,1.705-1.389,4.213.454,1.133.919,2.262,1.38,3.4C920.347,792.448,920.178,792.55,920.008,792.651ZM827.9,866.73c1.309-.758,2.329-1.468,3.47-1.991a73.562,73.562,0,0,1,15.613-4.764,130.676,130.676,0,0,1,32.787-2.577c9.187.4,18.335,1.026,27.172,3.395.945.253,1.177-.182,1.431-.7,1.661-3.4,3.372-6.783,4.932-10.211a29.036,29.036,0,0,0,1.419-4.475c.079-.291-.122-.879-.358-.95a36.556,36.556,0,0,0-6.352-1.683,123.331,123.331,0,0,0-14.879-1.107c-6.89.073-13.79.577-20.653,1.162a110.383,110.383,0,0,0-34.035,8.386,53.433,53.433,0,0,0-14.317,8.667c-.479.418-.743.779-.327,1.336C825.181,863.047,826.534,864.887,827.9,866.73Zm.6.349a4.023,4.023,0,0,0,.457.659c2.794,2.216,5.534,4.486,8.433,6.6a7.8,7.8,0,0,0,3.315,1.222,169.972,169.972,0,0,0,22.841,1.7c5.2.063,10.4.084,15.6.2,4.941.115,9.863.2,14.585-1.327.2-.063.442-.056.632-.137a15.657,15.657,0,0,0,3.153-1.383,11.378,11.378,0,0,0,2.446-2.569c2.138-2.911,4.191-5.866,6.271-8.805a8.8,8.8,0,0,0,.448-.866c-2.751-.558-5.364-1.139-8-1.608A154.886,154.886,0,0,0,877.7,858.9a125.752,125.752,0,0,0-41.758,5.2C833.392,864.867,831.018,866.056,828.5,867.078Zm87.189-30.416c-.672-.017-1.057-.024-1.44-.04q-12.769-.513-25.538-1.031c-5.981-.25-11.96-.76-17.938-.746-13.02.024-26.04.339-39.06.475a91.734,91.734,0,0,0-14.437,1.3c-1.478.253-2.135.782-2.115,2.2a11.762,11.762,0,0,0,.541,3.592c1.338,3.961,2.724,7.915,4.265,11.821a53.4,53.4,0,0,0,2.81,5.314,45.509,45.509,0,0,1,9.831-6.982c8.526-4.828,18.118-7.55,27.966-9.451a152,152,0,0,1,42.188-2.5c3.695.324,7.422.489,10.854,1.884a13.244,13.244,0,0,0,1.884.409C915.568,840.769,915.629,838.784,915.692,836.662Zm-62.954-43.681c-.171-4.52-.34-8.884-.508-13.266l-2.073.906-.341-.362c.673-.86,1.349-1.719,2.013-2.565-1.56-1.215-3.682-1.69-4.722-3.217.085-.131.172-.263.256-.4l4.561,1.7c-.649-3.6-1.257-6.932-1.846-10.266-.124-.711-.572-.746-1.3-.637a11.3,11.3,0,0,0-9.325,7.147,26.115,26.115,0,0,0-1.353,17.393,2.212,2.212,0,0,0,.42.792,28.291,28.291,0,0,1,6.714,19.046c-.041,7.648-.382,15.3-.59,22.946-.008.282.027.565.039.838,3.441-.048,6.781-.1,10.282-.148-.047-1.142-.09-2.187-.133-3.255-1.292.207-1.567.013-1.361-.94a4.161,4.161,0,0,1,.572-1.335.936.936,0,0,0-.335-1.517,7.661,7.661,0,0,1-1.584-1.315c-.226-.249-.169-.677-.241-1.028a4.666,4.666,0,0,1,1.154.161,9.647,9.647,0,0,1,1.391.911c.031-3.9.059-7.469.086-11.042l-.4-.07q-.885,1.35-1.776,2.7c-1.1-1.757.585-2.906,1.182-4.331-1.272-.585-2.505-1.124-3.7-1.718-.239-.12-.333-.445-.494-.675a2.584,2.584,0,0,1,.892-.271,4.6,4.6,0,0,1,1.236.337c.864.319,1.716.666,2.875,1.121-.463-5.011-.9-9.772-1.366-14.855-.788.9-1.315,1.506-1.84,2.106-.734-1.468.595-2.362.911-3.58-1.7-.592-3.372-1.169-5.043-1.749.059-.135.118-.269.176-.4C849.1,791.627,850.8,792.558,852.738,792.981Zm5.638-4.64c.161.137.32.273.48.413a9.411,9.411,0,0,1-.809,1.17c-.888.956-1.844,1.867-2.735,2.82-.6.647-.545,1.183.431,1.587a19.068,19.068,0,0,1,2.6,1.28,6.029,6.029,0,0,1,1.111,1.144l-.341.367c-1.317-.449-2.63-.9-4.057-1.385.413,4.246.815,8.363,1.234,12.686,1.453-1.1,2.02-2.755,4.03-3.076a3.537,3.537,0,0,1-.694,1.614c-.774.979-1.628,1.914-2.447,2.872-1.054,1.232-1.032,1.245.539,1.849a11.967,11.967,0,0,1,2.149,1.04,5.48,5.48,0,0,1,1.009,1.122c-.124.135-.244.273-.365.411-1.248-.448-2.5-.892-3.855-1.379.008,3.515.013,6.86.021,10.4,1.041-.839,1.5-1.954,2.81-2.146.139.09.279.178.418.265-1.018,1.5-2.035,3-3.062,4.511,1.047.924,3.02,1.037,3.261,3.015-1.253-.433-2.2-.76-3.255-1.125.114,1.59.181,3.089.371,4.577.028.2.664.5,1.025.5,2.01.042,4.023.011,6.035,0,1.385-.01,2.77-.029,4.518-.051-.717-3.671-1.4-7.177-2.084-10.7l-3.365,2.315c-.148-.12-.3-.235-.447-.354.495-.654.955-1.327,1.488-1.957,2.268-2.687,2.269-2.673-1.06-4.471-.259-.141-.35-.5-.521-.76.344-.086.738-.3,1.021-.231a12.578,12.578,0,0,1,1.688.675c-.012-4.392-.024-8.8-.036-13.1-.9.364-1.959.792-3.013,1.216l-.3-.324a5.431,5.431,0,0,1,.726-.921c.775-.647,1.587-1.262,2.417-1.863.648-.467.805-.905.13-1.459-.718-.588-1.41-1.2-2.079-1.835a9.632,9.632,0,0,1-.795-.963c.134-.116.267-.235.4-.35,1.169.694,2.342,1.383,3.623,2.141.652-2.5,2.463-4.54,2.305-7.415a52.355,52.355,0,0,0-3.649-17.2c-1.761-4.3-5.123-7.492-9.922-9.561a32.159,32.159,0,0,0-3.777-1.111c.749,3.863,1.45,7.488,2.169,11.191a13.277,13.277,0,0,1,1.532-1.312,5.659,5.659,0,0,1,1.374-.422,3.375,3.375,0,0,1-.352,1.157c-.525.7-1.174,1.325-1.78,1.993,1.187.911,2.943,1.13,3.346,2.516-.075.124-.152.248-.225.373l-3.539-1.135c.213,3.933.426,7.882.644,11.911C856.093,789.918,857.234,789.128,858.376,788.341Zm-28.207,36.507c.128-3.8-.188-7.4-.421-11.119-.675.4-1.134.675-1.594.951l-.449-.258c.415-.736.831-1.471,1.308-2.312a25.206,25.206,0,0,1-2.394-.834c-.349-.16-.545-.558-.811-.849a3.645,3.645,0,0,1,1.13-.316,20.192,20.192,0,0,1,2.184.347c-.391-3.372-.765-6.629-1.155-10l-1.234,1.167a2.893,2.893,0,0,1,.583-2.974c.6-.939.289-1.4-.715-1.806a9.97,9.97,0,0,1-1.574-.789c-.2-.13-.273-.415-.4-.631.291-.095.607-.3.871-.266a19.493,19.493,0,0,1,2.01.525c-.457-2.182-.87-4.233-1.341-6.276a1.282,1.282,0,0,0-.646-.661c-2.882-1.563-7.195-2.146-8.7,1.813-.16.418-.348.831-.512,1.251a51.954,51.954,0,0,1-2.011,5.122,15.436,15.436,0,0,0-1.392,8.42,42.324,42.324,0,0,0,3.217,12.243c1.912,4.956,4.144,9.827,6.21,14.742.442,1.054,1.14,1.46,2.535,1.34,2.192-.191,4.411-.169,6.78-.241-.437-2.077-.834-3.968-1.3-6.161a14.017,14.017,0,0,1-1.028,1.5,5.959,5.959,0,0,1-.974.707c-.114-.4-.412-.826-.3-1.17A18.306,18.306,0,0,1,829.1,826a22.039,22.039,0,0,1-2.179-.883,4.286,4.286,0,0,1-.924-.9,4.625,4.625,0,0,1,1.355-.162C828.155,824.2,828.922,824.483,830.169,824.847Zm71.573-11.637c.056.137.111.273.169.41q-1.274.728-2.549,1.453c-.783.443-.934.877-.15,1.481a13.065,13.065,0,0,1,1.9,1.818c.24.279.214.718.311,1.082a4.874,4.874,0,0,1-1.387-.286,16.324,16.324,0,0,1-1.845-1.372c-.83,5.536-1.631,10.864-2.419,16.119,2.38.18,4.77.328,7.147.555,1.107.107,1.515-.214,1.731-1.129a73.073,73.073,0,0,1,2-7.306,195.554,195.554,0,0,0,7.784-28.02c1.094-5.777,1.854-11.594.522-17.452a7.874,7.874,0,0,0-7.016-5.971c-.188,1.767-.365,3.425-.547,5.137l3.33-.826c.095.164.19.326.282.49l-3.285,1.881a22.13,22.13,0,0,1,2.163,1.464c.468.4,1.178,1.264,1.054,1.385-.719.688-1.387,0-2.02-.309-.611-.3-1.16-.677-1.787-1.052-.718,3.684-1.41,7.221-2.1,10.762l3.731-.446c.065.192.134.387.2.579-1.152.422-2.292.874-3.458,1.263-1.5.5-1.609,1-.5,1.978.99.872,1.91,1.8,2.805,2.747.165.173.059.528.078.8a2.749,2.749,0,0,1-.943-.133,16.635,16.635,0,0,1-1.593-1.138c-.5-.38-1-.77-1.644-1.271-1.555,5.347-3.05,10.495-4.558,15.686Zm-68.956,14.283c.383,1.9.718,3.662,1.124,5.412.038.171.5.378.779.385,2.008.054,4.022.011,6.029.1,1.269.054,1.612-.345,1.637-1.383.157-7.023.426-14.042.59-21.066.157-6.812-1.065-13.35-6.029-19a24.489,24.489,0,0,0-4.272-3.822c-1.777-1.252-3.272-.851-4.347.884-.1.158-.235.354-.2.507.449,1.805.924,3.605,1.442,5.585,1.187-1.188,1.732-2.67,3.584-2.87l.414.242q-1.681,2.263-3.37,4.531c1.387,1.158,3.38,1.632,4.292,3.25-1.924.423-2.853-.956-4.45-1.373.4,3.576.779,7.009,1.174,10.579l2.725-2.334c.145.1.29.2.438.3-.2,1.642-1.869,2.71-2.583,4.192,1.461,1.194,3.909,1.389,4.739,3.4-1.844.256-2.863-1.051-4.486-1.287.157,2.6.311,5.135.466,7.691l2.042-.521c.1.1.209.211.317.318-.56.651-1.093,1.321-1.68,1.956-1.153,1.25-.834,2.535.805,3.172a6.689,6.689,0,0,1,1.043.456c.644.386,1.492.673,1.314,1.811C835.134,828.234,834.047,827.89,832.785,827.493ZM891.468,800a4.2,4.2,0,0,1,.9-.535,7.886,7.886,0,0,1,1.285-.171,2.865,2.865,0,0,1-.346,1.044,14.306,14.306,0,0,1-1.441,1.324c1.745,1.7,4.368,2.691,4.617,5.11-.11.086-.222.174-.335.26-1.27-1-2.542-1.989-3.694-2.891-.628,5.9-1.255,11.76-1.839,17.242l2.158,1.4c-.664.277-1.329.551-2.154.892.451,1.872,1.821,3.833,1.656,6.037-.138.051-.279.1-.418.149-.732-1.179-1.464-2.354-2.239-3.6-.758,2.462-1.478,4.794-2.218,7.2l6.126.462c.78-5.191,1.552-10.339,2.324-15.487-.125-.029-.25-.061-.373-.091q-.64.619-1.274,1.242c-.4-1.6.977-2.479,1.9-3.7a8.991,8.991,0,0,0-2.332-1.2c-.781-.149-1.065-.477-.848-.918a1.56,1.56,0,0,1,1.3-.457,15.572,15.572,0,0,1,2.4,1.123c1.733-5.9,3.449-11.747,5.162-17.588l-.283-.1q-1.317.993-2.631,1.981c-.436-1.549.976-2.2,1.85-3.255-.779-.367-1.546-.69-2.26-1.081-.273-.151-.425-.456-.634-.691.312-.157.634-.454.932-.443a4.506,4.506,0,0,1,1.48.395c.688.287,1.336.641,2.259,1.089.856-3.863,1.676-7.553,2.493-11.245-.115-.029-.231-.063-.345-.094l-1.068.975-.457-.138a5.873,5.873,0,0,1,.424-1.508,9.57,9.57,0,0,1,1.225-1.4l-2.945-.937c.035-.167.07-.332.105-.5,1.091-.04,2.18-.08,3.444-.122.18-1.691.365-3.427.565-5.3-2.531.056-4.911.388-6.9,1.88a20.937,20.937,0,0,0-7.776,11.88,66.032,66.032,0,0,0-1.091,6.883c-.086.547-.452,1.145-.287,1.622A28.7,28.7,0,0,0,891.468,800Zm-13.189,33.02c.05-4.973.1-9.83.156-14.911-.535.42-.807.635-1.206.945-.5-1.491.867-2.4,1.189-3.533-.915-.48-1.8-.89-2.591-1.391-.239-.15-.244-.564-.356-.855a3.488,3.488,0,0,1,1.056-.016c.675.209,1.308.515,2.254.9-.116-4.373-.226-8.482-.335-12.592l-.275-.047c-.381.658-.758,1.315-1.264,2.19-1.161-1.444-.145-2.479.318-3.542a3.66,3.66,0,0,1-.828-.457,6.2,6.2,0,0,1-.65-.917,7.158,7.158,0,0,1,1.3-.06,9.508,9.508,0,0,1,1.482.47c.016-1.984.035-3.759.052-5.578-2.715.073-5.161.5-6.87,2.234a9.963,9.963,0,0,0-2.879,4.731,38.541,38.541,0,0,0-.994,13.507c.828,6.237,2.023,12.441,3.083,18.772Zm2.311-16.416a2.229,2.229,0,0,0-.128.486q0,7.611,0,15.223c0,.685.363.981,1.193.968a16.671,16.671,0,0,1,2.617.116c1.052.156,1.536-.186,1.7-1.022.076-.4.246-.78.335-1.179,1.455-6.615,3.1-13.215,3.208-19.98a87.96,87.96,0,0,0-.131-8.916,9.822,9.822,0,0,0-3.994-7.117,7.322,7.322,0,0,0-5.317-1.659c.048,1.4.09,2.735.137,4.16a10.331,10.331,0,0,1,1.259-.324,5.168,5.168,0,0,1,.977.058c-.093.291-.088.658-.3.862a7.862,7.862,0,0,1-1.33.879c-.707.428-.779.846-.044,1.306a11.471,11.471,0,0,1,1.629,1.1c.208.188.143.587.2.891a3.832,3.832,0,0,1-1.059.059,7.9,7.9,0,0,1-1.341-.617c.154,3.914.3,7.663.454,11.521,1.13-.485,1.761-1.574,3.483-1.17-1.132,1.019-2.115,1.9-3.128,2.82.874.679,2.356.761,2.4,2.058a2.153,2.153,0,0,1-.583.051C882.122,817.017,881.424,816.824,880.59,816.607ZM856.9,754.913a11.736,11.736,0,0,0-.386-2.476,1.2,1.2,0,0,0-2.22-.228,11.611,11.611,0,0,0-1.2,2.523c-.23.594-.449,1.27-1.306,1.081-.438-.1-.813-.711-1.024-1.155-.305-.639-.326-1.38-.678-2-.229-.4-.826-.659-1.26-.978-.339.4-.957.792-.966,1.2-.036,1.448.16,2.894.205,4.345.012.429-.046,1.14-.31,1.233a2.13,2.13,0,0,1-1.586-.21c-.928-.66-1.648-1.529-2.571-2.195a8.679,8.679,0,0,0-2.237-1.059c-.744-.258-1.135.033-1.117.746a4.773,4.773,0,0,0,2.109,4.012,36.563,36.563,0,0,0,4.621,2.682,5.794,5.794,0,0,0,6.563-1.2A11.89,11.89,0,0,0,856.9,754.913Zm-34.545,19.66c-.151.073-.3.15-.456.221a9.132,9.132,0,0,0,.01,4.675,1.62,1.62,0,0,1-.5,1.491c-.777.425-1.239-.236-1.754-.724a27.765,27.765,0,0,0-3.068-2.506,2.023,2.023,0,0,0-1.435-.19c-.207.054-.315.712-.26,1.075a5.87,5.87,0,0,0,3.055,4.325,38.613,38.613,0,0,0,4.9,2.305c1.784.7,2.352.5,3.454-.884a11.135,11.135,0,0,0,2.544-7.51,5.828,5.828,0,0,0-.66-2.218,1.488,1.488,0,0,0-1.1-.632c-.252,0-.683.527-.735.851a14.183,14.183,0,0,0-.135,2.515c.009.713.166,1.527-.972,1.646-1.122.116-1.3-.65-1.4-1.387a3.858,3.858,0,0,0-.256-1.3A17.037,17.037,0,0,0,822.356,774.573Zm62.154,8.7c-.154,0-.307.01-.461.014-.354.526-.745,1.039-1.052,1.585-.329.592-.646,1.225-1.59.993s-.864-.889-.679-1.542a1.613,1.613,0,0,0,.095-.869,3.658,3.658,0,0,0-.588-.863c-.259.211-.653.384-.749.64-.345.9-.5,1.864-.9,2.745-.193.417-.784.7-1.2,1.051a6.492,6.492,0,0,1-.958-1.123c-.164-.314.077-.82-.139-1.065a3.006,3.006,0,0,0-1.531-1.107c-.943-.133-.82.673-.854,1.191-.173,2.645,1.722,4.531,3.412,6.488a.477.477,0,0,0,.339.141,19.431,19.431,0,0,0,4.661-.68c2.33-.941,3.6-5.123,2.476-7.1C884.7,783.6,884.6,783.434,884.51,783.27ZM900.7,764.613a4.28,4.28,0,0,0,1.4,6.545c.815.427,1.623.873,2.477,1.239.622.265,1.24.322,1.609-.411.091-.181.59-.24.916-.306.546-.109,1.278-.022,1.623-.293a28.042,28.042,0,0,0,3.75-3.36,6.694,6.694,0,0,0,1.139-2.647c.085-.3-.312-.694-.49-1.044-.39.176-.949.27-1.135.543-.564.82-.9,1.755-1.5,2.55-.286.379-.965.547-1.466.809a7.354,7.354,0,0,1-.735-1.25c-.09-.252.161-.575.154-.862-.023-.849-.1-1.695-.148-2.542-.136-.018-.271-.031-.4-.049a4.607,4.607,0,0,0-.722.872c-.624,1.327-1.139,2.693-1.81,4-.221.427-.8.724-1.217,1.08a9.154,9.154,0,0,1-1.061-1.1c-.163-.231-.074-.581-.155-.864A4.148,4.148,0,0,0,900.7,764.613Z" transform="translate(-806.098 -749.723)"/>
</svg>
