<svg xmlns="http://www.w3.org/2000/svg" width="107.369" height="129.853" viewBox="0 0 107.369 129.853">
  <path id="Path_628" data-name="Path 628" d="M786.482,596.318a.911.911,0,0,0,.058-.292,44.737,44.737,0,0,1,4.367-17.884c1.516-3.126,3.8-5.887,5.831-8.752.61-.861,1.539-.647,1.875.415a46.209,46.209,0,0,1,1.35,5.2c.416,2.165.664,4.364.989,6.547.045.3.111.587.177.936,1.588-2.781,3.213-5.445,4.655-8.2a35.32,35.32,0,0,1,5.829-8.253c2.9-3,5.688-6.116,8.666-9.039a58.4,58.4,0,0,1,5.229-4.21c.567-.44,1.013-.161,1.018.618.01,1.723-.012,3.447-.013,5.171a2.919,2.919,0,0,0,.242,1.272c.312-.553.584-1.133.942-1.654,2.619-3.8,5.1-7.719,7.938-11.353a25.616,25.616,0,0,1,8.22-6.528,1.068,1.068,0,0,1,1.667.757,6.125,6.125,0,0,1,.068,1.848q-.741,8.143-1.534,16.281c-.089.911-.273,1.813-.458,3.015,1.638-1.024,3.12-1.826,4.451-2.831.754-.568,1.185-.355,1.613.2a2.588,2.588,0,0,1,.52,1.217,34.1,34.1,0,0,1,.25,8.649,76.162,76.162,0,0,1-2.8,13.247c-.014.049.038.122.076.238a2.266,2.266,0,0,0,.348-.143q4.837-3,9.671-6c.791-.49,1.566-1.018,2.4-1.433,1.792-.892,2.765-.349,2.572,1.612a87.95,87.95,0,0,1-1.291,9.112c-1.02,4.964-2.258,9.884-3.4,14.821.152-.151.417-.372.637-.629,4.844-5.652,11.344-8.388,18.264-10.384a9.677,9.677,0,0,1,1.114-.237c1.412-.23,1.987.324,1.741,1.711a37.081,37.081,0,0,1-3,9.664c-1.1,2.286-2.271,4.542-3.406,6.8.474-.162,1.112-.412,1.768-.6,2.1-.6,2.593-.139,2.236,2.006a28.615,28.615,0,0,1-3.661,9.632,46.015,46.015,0,0,1-9.97,11.819c-2.976,2.562-6.559,4.172-10.081,5.857-1.885.9-3.67,2.01-5.531,3.042.151.257.179.377.25.414,1.875.979,2.154,2.549,1.606,4.4q-.765,2.574-1.6,5.128c-1.369,4.164-2.7,8.344-4.16,12.475-.766,2.159-1.365,4.43-3.06,6.151a5.917,5.917,0,0,1-4.454,1.83,59.248,59.248,0,0,1-16.62-2.607q-15.656-4.576-31.319-9.135c-1.921-.562-3.812-1.226-5.726-1.809-3.417-1.041-5.294-3.468-6.15-6.8a26.151,26.151,0,0,1-.439-9.161c.447-4.5,1.023-8.978,1.589-13.461a8.785,8.785,0,0,1,.661-2.387c.411-.946.982-1.821,1.516-2.785-.992-1.6-2.073-3.445-3.248-5.224a26.257,26.257,0,0,1-4.3-12.592,35.137,35.137,0,0,1,.258-9.787c.414-2.094.55-4.242.914-6.347.26-1.5.817-1.786,2.039-.915a66,66,0,0,1,5.484,4.366C783.152,592.932,784.806,594.678,786.482,596.318Zm2.616,60.125c.016-.05.031-.1.047-.152,9.961,2.943,19.929,5.866,29.88,8.838a61.5,61.5,0,0,0,17.8,3,4.185,4.185,0,0,0,3.9-2.44,29.528,29.528,0,0,0,1.695-4.11c1.36-3.949,2.667-7.915,3.978-11.879.649-1.96,1.321-3.916,1.87-5.905.417-1.51.046-2.056-1.477-2.51-1.341-.4-2.685-.794-4.049-1.095-5.184-1.143-10.378-2.239-15.566-3.364-12.718-2.758-25.413-5.609-37.784-9.711-2.551-.846-5.053-1.842-7.57-2.788-.652-.244-1.049-.113-1.233.592a16.084,16.084,0,0,0-.592,2.087c-.618,5.168-1.318,10.33-1.719,15.516a25.834,25.834,0,0,0,.535,6.772,6.614,6.614,0,0,0,4.883,5.374C785.507,655.21,787.3,655.849,789.1,656.444Zm71.977-79.016-.341-.1c-.556,1.351-1.1,2.706-1.666,4.051-1.177,2.8-2.268,5.633-3.571,8.371-2.5,5.261-5.205,10.429-7.675,15.7-1.887,4.028-3.549,8.16-5.3,12.252-.88,2.055-1.726,4.124-2.484,5.941,2.87-1.71,5.887-3.5,8.889-5.312a1,1,0,0,0,.448-.622c.406-3.136,1.8-5.931,3.039-8.772.724-1.669,1.8-3.194,2.435-4.892a116.847,116.847,0,0,0,5.165-19.6C860.442,582.129,860.726,579.772,861.074,577.428Zm-49.523,21.779a3.426,3.426,0,0,0,.28-.25c3.2-3.466,6.407-6.927,9.587-10.41a3.368,3.368,0,0,0,.684-1.236,73.173,73.173,0,0,0,2.785-14.611c.386-3.753.214-7.564.263-11.35.014-1.036-.079-2.073-.122-3.11C820.364,571.854,815.313,585.289,811.552,599.206Zm11.024-42.247-.3-.165c-.246.232-.5.454-.735.7-2.87,3.075-5.721,6.169-8.608,9.225a32.2,32.2,0,0,0-5.238,7.15c-1.087,2.076-2.281,4.1-3.44,6.133-1.824,3.205-3.191,6.538-3.027,10.326.021.445-.078.894-.094,1.341-.034.956-.047,1.912-.078,3.138.535-.724.884-1.228,1.267-1.707a16.054,16.054,0,0,1,1.276-1.489c.649-.634,1.354-1.2,2.214-.147C810.356,579.362,814.939,567.427,822.576,556.959Zm-31.158,68.965c.159-.087.316-.175.476-.261-.224-1.79-.325-3.6-.7-5.363-.9-4.288-3.009-8.134-4.658-12.148-.406-.987-.877-1.95-1.38-2.893-1.99-3.746-3.974-7.494-6.022-11.208-.7-1.268-1.57-2.442-2.363-3.658l-.345.144a28.494,28.494,0,0,0,.589,5.086c1.6,5.378,2.694,10.934,5.32,15.971,1.386,2.658,2.729,5.341,4.2,7.952a57.74,57.74,0,0,0,3.243,5.017A8.153,8.153,0,0,0,791.418,625.924Zm32.108-68.36c-1.924,3.177-4.034,6.259-5.737,9.55A190.38,190.38,0,0,0,807.474,591.6a8.01,8.01,0,0,0-.558,4.869c.579,2.214.915,4.489,1.355,6.738C812.686,587.752,818.254,572.729,823.526,557.564ZM858.9,578.9c-.082-.038-.162-.077-.244-.115a8.664,8.664,0,0,0-.62.67c-4.182,5.568-8.455,11.071-12.481,16.748a13.67,13.67,0,0,0-2.451,6.723,88.448,88.448,0,0,1-2.535,13.389c-.873,3.389-2.348,6.622-3.555,9.925a24.175,24.175,0,0,0,2.109-3.563c1.324-2.919,2.517-5.9,3.831-8.822q3.835-8.538,7.75-17.038c2.191-4.76,4.445-9.49,6.649-14.244C857.914,581.373,858.389,580.129,858.9,578.9Zm-40.621,54.219c.34-2.111.574-4.127,1-6.1.643-2.992,1-6.063,2.39-8.862,1.41-2.836,3.486-5.321,4.388-8.425.13-.457.449-.856.612-1.308,1.309-3.633,2.745-7.227,3.861-10.919,1.205-3.986,2.4-8.007,2.392-12.244,0-.554-.029-1.108-.046-1.66-.987,1.979-1.7,3.991-2.6,5.913-2.79,5.96-5.667,11.879-8.475,17.83a6.022,6.022,0,0,0-.937,3.209,40.613,40.613,0,0,1-3.811,20.187c-.269.607-.561,1.2-.883,1.89Zm-10.918-18.211.189.066c.14-.192.289-.379.415-.578a30.571,30.571,0,0,1,7.223-7.772,7.378,7.378,0,0,0,2.307-2.97,65.106,65.106,0,0,1,8.479-14.047c1.48-1.88,2.934-3.78,4.555-5.871a9.866,9.866,0,0,0-1.078.629c-2.877,2.3-5.887,4.464-8.582,6.962-4.411,4.088-8.446,8.541-11.237,13.953a11.311,11.311,0,0,0-1.643,4.964A39.836,39.836,0,0,1,807.364,614.912Zm39.775-51.5-.228-.077c-.238.409-.466.826-.718,1.228A173.4,173.4,0,0,0,835.948,583.8a21.175,21.175,0,0,0-1.792,5.51,80.593,80.593,0,0,1-4.68,16.394c-.317.8-.546,1.628-.861,2.585,1.081-1.015,2.041-1.9,2.983-2.811a2.026,2.026,0,0,0,.457-.679c1.918-4.766,3.882-9.514,5.717-14.313,1.673-4.382,3.252-8.8,4.782-13.239C844.138,572.654,845.616,568.025,847.139,563.413ZM825.4,634.674a29.762,29.762,0,0,1,2.922.692,1.726,1.726,0,0,0,2.343-1.006c1.352-2.514,2.826-4.969,4.083-7.528a74.059,74.059,0,0,0,6.659-21.683c.162-1.06.183-2.141.275-3.27C836.781,613.12,830.841,623.7,825.4,634.674Zm17.134-89.18c-.1-.038-.206-.074-.31-.11-7.712,12.305-13.847,25.278-16.813,39.877,1.188-.835,2.148-1.567,3.168-2.2a2.055,2.055,0,0,0,.948-1.477,38.213,38.213,0,0,1,1.381-5.165c1.439-3.8,3.043-7.537,4.557-11.308,1.221-3.042,2.482-6.07,3.588-9.153C840.3,552.5,841.381,548.984,842.534,545.493Zm-54.543,79.458c-6.816-10.62-11.807-21.808-13.05-34.407-.162,1.263-.245,2.571-.511,3.842a25.212,25.212,0,0,0-.3,8.852c.37,2.551.507,5.251,1.487,7.572a74.723,74.723,0,0,0,5.279,9.479A9.694,9.694,0,0,0,787.991,624.951Zm71.232-9.671c6.289-7.656,12.641-15.1,18-23.326-5.9,2.969-10.2,7.81-14.846,12.251-3.481,3.328-5.571,7.651-8.445,11.453a17.406,17.406,0,0,0,2.661-1.089C857.76,614,858.366,614.111,859.223,615.28ZM825.413,579.7c.093.034.183.068.274.1,3.318-13.272,9.584-25.191,16.628-36.82a33.906,33.906,0,0,0-6,5.324c-2.928,3.735-5.489,7.758-8.193,11.667a9.362,9.362,0,0,0-1.52,5.885,58.011,58.011,0,0,1-.167,7.012C826.235,575.156,825.765,577.42,825.413,579.7ZM821.9,633.825c1.7.69,1.719.7,2.663-.735A25.5,25.5,0,0,0,826,630.7c1.4-2.729,2.733-5.492,4.145-8.214,2.586-4.988,5.225-9.947,7.809-14.936.748-1.444,1.379-2.948,2.063-4.424l-.313-.194c-1.968,2.285-4.063,4.473-5.877,6.873a76.827,76.827,0,0,0-9.685,16.687C823.165,628.827,821.957,631.119,821.9,633.825Zm34.606-54.17c-.147-.015-.224-.049-.27-.024-.728.4-1.456.792-2.173,1.2a29.412,29.412,0,0,0-9.331,7.749c-2.983,4.014-5.983,8.016-8.949,12.042-.624.847-1.129,1.779-1.69,2.672.093.127.189.253.282.38a3.484,3.484,0,0,1,.593-.562q2.882-1.634,5.785-3.228a2.063,2.063,0,0,1,1.045-.406c1,.126,1.166-.583,1.483-1.228a20.378,20.378,0,0,1,1.6-3c2.283-3.158,4.646-6.256,6.978-9.378C853.408,583.818,854.945,581.755,856.51,579.655Zm-59.795-7.386-.237-.1a3.93,3.93,0,0,0-.461.483c-.993,1.452-2.078,2.852-2.942,4.377a39.046,39.046,0,0,0-4.049,11.257c-.559,2.625-1.055,5.275-1.359,7.938a8.95,8.95,0,0,0,.446,3.729c.771,2.311,1.8,4.539,2.693,6.809.279.71.487,1.446.727,2.171l.26-.055a67.18,67.18,0,0,1,.473-18.5C793.424,584.261,794.351,578.1,796.716,572.269Zm45.092,65.9c1.353.334,2.58.653,3.818.928a.921.921,0,0,0,.65-.186,15.44,15.44,0,0,0,1.42-1.184c5.927-5.635,9.578-12.326,9.462-20.859A188.991,188.991,0,0,1,841.808,638.167Zm4.175-75.592c-5.659,2.259-14.766,13.556-15.137,18.975.342-.2.637-.349.91-.53,1.514-1,2.328-.631,2.57,1.171.088.652.176,1.3.241,1.782Zm-8.379,32.59c.287-.352.458-.546.611-.751a58.22,58.22,0,0,1,4.159-5.533,17.8,17.8,0,0,0,4.367-8.651c.907-4.1,1.719-8.234,2.3-12.391a37.763,37.763,0,0,0-.117-6.2C846.345,573.2,841.131,583.785,837.6,595.165Zm-32.851-1.108c-.038.28-.068.444-.083.609-.382,4.149-.664,8.31-1.168,12.444-.644,5.3-1.423,10.579-2.232,15.854-.287,1.882-.83,3.726-1.271,5.65l.356.089C806.5,617.742,808.437,606.3,804.753,594.057Zm3.144,36.525c.771-2.783,1.366-5.55,2.316-8.193a81.448,81.448,0,0,1,3.455-7.852c1.208-2.5,2.571-4.926,4-7.637-.529.375-.84.577-1.132.8a29.446,29.446,0,0,0-8.046,9.083c-1.858,3.373-3.345,6.91-3.129,10.9C805.5,630.311,804.918,630.036,807.9,630.583Zm-4.573-36-.244-.07c-.2.313-.385.643-.611.938-1.612,2.091-1.806,4.836-3.435,7.006-1.139,1.519-1.543,3.661-2.017,5.589-.508,2.067-.712,4.209-1.048,6.319-.228,1.428-.523,2.851-.667,4.289-.27,2.679.56,5.107,1.924,7.717C798.324,615.391,800.941,605.011,803.324,594.585ZM793.679,613.8c1.57-12.358,3.372-24.7,2.83-37.445C793.061,588.785,791.494,601.142,793.679,613.8Zm42.875,23.241c1.027.236,1.873.378,2.686.63a1.343,1.343,0,0,0,1.665-.584c2.392-3.113,4.857-6.169,7.233-9.293,1.814-2.385,3.542-4.837,5.291-7.271.4-.558.73-1.168,1.1-1.75.346-.544.7-1.081,1.051-1.622l-.268-.206C847.961,622.537,842.279,629.684,836.554,637.045Zm1.337-33.792c-6.319,3.16-13.586,10.957-15.625,17.389-1.285,4.052-2.7,8.223-1.989,12.761A75.374,75.374,0,0,1,837.891,603.253Zm-4.138-31.483a52.928,52.928,0,0,1,7.531-8.025,1.392,1.392,0,0,0,.336-.729c.28-1.384.621-2.763.778-4.163.517-4.655.967-9.319,1.435-13.98.043-.448.04-.9.058-1.351C841.148,553.184,837.229,562.382,833.753,571.77Zm38.562,21.8c-7.258,1.92-12.193,6.955-16.511,12.619-2.433,3.189-3.643,7.081-5.04,10.892,1.292.069,1.184-.907,1.561-1.452,1.917-2.775,3.693-5.662,5.776-8.307a96.4,96.4,0,0,1,12.027-12.065C870.814,594.648,871.583,594.131,872.315,593.572ZM819.1,607.487l-.363,0c-2.086,8.046-4.174,16.1-6.283,24.228a7.8,7.8,0,0,0,1.383.344.994.994,0,0,0,.787-.4,29.1,29.1,0,0,0,1.556-3.031A44.252,44.252,0,0,0,819.214,616,66.34,66.34,0,0,0,819.1,607.487Zm12.93,28.636c.826.17,1.578.279,2.3.488a1.271,1.271,0,0,0,1.576-.562c.969-1.34,1.933-2.7,3.027-3.932,3.495-3.951,7.048-7.849,10.576-11.77a3.514,3.514,0,0,0,.271-.437C842.508,622.709,833.642,631.978,832.034,636.124Zm22.533-3.522c3.2-1.985,17.061-17.674,18.385-20.937a2.555,2.555,0,0,0-.279.16,114.574,114.574,0,0,0-12.31,10.59,15.066,15.066,0,0,0-2.667,3.278C856.483,627.99,855.535,630.428,854.567,632.6Zm20.774-21.863c-3.123,4.032-6.066,8.112-9.305,11.938-3.226,3.81-6.751,7.367-9.912,10.783C864.236,630.263,873.409,618.908,875.341,610.74Zm2.115-16.328c-5.181,6.685-10.18,13.135-15.187,19.6,2.25-1.431,4.5-2.821,6.7-4.282a7.1,7.1,0,0,0,1.724-1.606,31.208,31.208,0,0,0,4.645-8.136C875.985,598.191,876.692,596.414,877.456,594.412Zm-81.262,9.983.256.029c.585-1.236,1.219-2.452,1.737-3.717a10.4,10.4,0,0,0,.755-2.655,78.532,78.532,0,0,0-.02-19.694c-.169-1.276-.427-2.539-.646-3.809l-.369.008C797.823,584.532,797.938,594.517,796.194,604.395Zm33.964-17.6-.286-.134c-4.076,5.483-8.337,10.85-10.721,17,.621.967,1.108,1.726,1.525,2.373C823.806,599.688,826.982,593.242,830.158,586.8Zm-14.076,25.1c-2.868,6.14-5.952,12.19-6.828,19.07.189.05.452.132.719.184s.527.073.916.123C812.988,624.88,815.132,618.551,816.083,611.892Zm57.289-2.364c-.021-.037-.041-.074-.063-.112-.686.309-1.378.607-2.058.928a41.967,41.967,0,0,0-11.417,7.739,5.515,5.515,0,0,0-1.373,4.121Zm-92.71-16.538q5.113,10.148,10.223,20.3C788.838,605.835,786.972,598.293,780.661,592.991Zm18.045,34.817a150.433,150.433,0,0,0,3.8-23.341A121.845,121.845,0,0,0,798.706,627.808Zm5.025-1.7-2.047,2.976,2.262.544C803.875,628.44,803.81,627.389,803.731,626.109Zm-9.817-1.228c.005.693.01,1.3.014,1.831l2.2.727C795.487,625.765,794.969,625.154,793.914,624.881Z" transform="translate(-772.449 -540.136)"/>
</svg>
