<svg xmlns="http://www.w3.org/2000/svg" width="94.514" height="132.904" viewBox="0 0 94.514 132.904">
  <g id="Symbol_5_2" data-name="Symbol 5 – 2" transform="translate(-448.206 -2497)">
    <g id="Group_558" data-name="Group 558">
      <path id="Path_630" data-name="Path 630" d="M578.721,99.8c12.72,6.682-9.474,16.162-6.4,1.317-.439.892-7.194,7.628-9.908,7.244-6.212-.877-3.316-8.49.42-10.728-2.785-.228-12.214,2.232-10.818-4.088,1.153-5.216,10.283-2.1,13.076-1.651-4.036-18.833,16.3-16.206,10.712-2.295,1.838-3.1,5.293-10.184,9.5-8.469,4.532,1.845,2.39,8.9-1.4,10.175,5.171-1.151,9.263,2.383,8.189,7.659-3.729,2.349-8.951,1.673-13.286,1.421-.192-1.03.308-1.1.62-2.008Z" transform="translate(-74.266 2423.958)" fill="#8ab337"/>
      <g id="Group_513" data-name="Group 513" transform="translate(453.73 2497)">
        <path id="Path_631" data-name="Path 631" d="M591.944,158.945l3.339-.427c-1.134,1.975-2.87,2.131-4.431,2.646.341,1.359.665,2.655,1.029,4.1-1.429-.33-1.429-.33-2.953-2.916-1,1.049-2,2.044-2.939,3.1a24.623,24.623,0,0,1-13.373,7.82,41.3,41.3,0,0,0-3.978,1.191c-3.508,1.18-7.02,1.48-10.351-.406-2.327-1.316-4.909-1.44-7.4-1.964a24.881,24.881,0,0,1-13.789-7.968c-2.758-3.092-5.369-6.312-8.073-9.507a18.073,18.073,0,0,1-.746,2.163c-.188.407-.644.691-.98,1.031-.251-.426-.763-.889-.707-1.27a25.16,25.16,0,0,1,.913-3.886c.5-1.6.325-2.131-1.182-2.793a.547.547,0,0,1-.137-.055q-.849-.714-1.7-1.434.919-.531,1.831-1.06l-2.688-16.248c-.672,1.341-1.252,2.5-1.85,3.688-1.169-.165-1.534-.716-.962-1.953.785-1.7,1.695-3.347,2.57-5.058-1.009-1.338-3.189-1.463-3.826-3.216.105-.2.208-.39.312-.586l3.975,1.4c.191-5.783,2.543-10.959,4.828-16.279h-3.258c-.047-.2-.094-.391-.14-.586.8-.333,1.6-.674,2.411-1,.823-.328,1.651-.637,2.57-.99-.681-1.474-1.366-2.844-1.93-4.261a3.882,3.882,0,0,1,.03-1.46c.46.256,1.064.406,1.351.792.671.9,1.19,1.92,1.78,2.907l9.555-11.7c-1.925-3.248-.138-6.318,4.162-7.237a15.962,15.962,0,0,1,9.418.434c-.349-2.231-.634-4.413-1.04-6.573a5.63,5.63,0,0,1,2.179-5.539,10.764,10.764,0,0,1,7.219-2.733,5.273,5.273,0,0,1,5.493,4.963c.124,1.075.171,2.16.238,3.046,1.838-1.051,3.63-2.236,5.557-3.136a5.832,5.832,0,0,1,5.929.591,5.369,5.369,0,0,1,2.35,6.669,11.331,11.331,0,0,1-3.365,5.324c.477.041.842.092,1.206.1,3.352.073,4.923,1.917,4.625,5.3a2.327,2.327,0,0,0,.52,1.783,54.184,54.184,0,0,1,12.038,13.157,17.141,17.141,0,0,1,.622-2.427c.163-.4.665-.67,1.013-1,.209.4.638.828.588,1.191a13.5,13.5,0,0,1-.823,3.58c-.6,1.351-.338,2.147.951,2.749a9.052,9.052,0,0,1,1.267.94l-1.344.551c.325,6,.647,11.963.97,17.95l2.4-1.081c-.052,1.26-.052,1.26-2.561,3.914.562.738,1.136,1.492,1.712,2.247l-.232.387-2.114-.494c-1.472,7.533-2.271,15.427-8.363,21.275Zm-34.244,12,.348.364a26.094,26.094,0,0,0,2.975-1.8c2.251-1.785,4.407-3.689,6.632-5.508.912-.746,2.131-1.221,2.82-2.117a51.479,51.479,0,0,0,7.653-13.7c.576-1.568,1.143-3.14,1.715-4.709l-.317-.178c-.447.557-.866,1.142-1.353,1.663a9.591,9.591,0,0,1-1.124.9c-.077-.545-.391-1.216-.183-1.612A16.25,16.25,0,0,1,579,141.07c1.916-2.171,1.96-2.133-.223-3.972-.039-.032-.1-.053-.116-.093-.131-.3-.443-.746-.344-.871a1.237,1.237,0,0,1,.943-.452,10.251,10.251,0,0,1,1.823.574,69.286,69.286,0,0,0,.006-17.806l-1.457,1.712c-1.284-1.906.365-3.178.645-4.794-1.09-.718-2.2-1.534-3.4-2.2-.554-.31-1.458-.368-1-1.2.185-.337,1.225-.476,1.738-.3a16.75,16.75,0,0,1,2.712,1.522c-.735-4.674-1.953-8.89-4.509-12.374-.175,2.151-.19,4.358-.581,6.494-.291,1.595-1.583,2.355-3.232,2.619-3.748.6-6.993-.039-9.467-3.732-.471,5.988-.91,11.58-1.354,17.256,1.606-1.058,2.908-1.918,4.213-2.777q.279.315.56.628l-3.983,4.728c1.522.9,3.495.967,4.229,3.072-2.015.595-3.38-1.015-5.277-1.1-.392,7.133-.78,14.209-1.177,21.4,1.228-.757,2.269-1.4,3.309-2.044.147.148.3.3.443.443q-1.12,1.668-2.24,3.338c.735.989,2.552,1.366,2.111,3.539l-3.755-2.26C558.335,158.659,558.559,164.859,557.7,170.941ZM582.865,140.6c-.118.11-.228.163-.252.242-.143.472-.279.948-.4,1.429a58.755,58.755,0,0,1-10.252,21.267,5.7,5.7,0,0,1-1.081,1c-3.376,2.643-6.763,5.275-10.24,7.986,5.83,2.561,22.286-4.733,26.119-11.5a14.085,14.085,0,0,1-1.681.337,8.127,8.127,0,0,1-1.363-.113c.292-.463.483-1.177.893-1.338a25.361,25.361,0,0,1,3.4-.857,21.815,21.815,0,0,1-1.2-2.494c-.129-.367.137-.87.223-1.31.392.137.908.165,1.148.436a18.871,18.871,0,0,1,1.413,2.032c4.194-3.95,8.394-14.514,7.558-18.89l-1.245,1.681c-1.22-2.443.684-3.568,1.454-4.951l-3.74-3.3c2.079-.933,3,.623,4.457,1.175a71.8,71.8,0,0,0-.976-18.792c-1.124.889-1.272,2.6-3.3,2.687.752-1.82,1.4-3.38,2.086-5.049-.958-.661-1.9-1.284-2.812-1.961a1.125,1.125,0,0,1-.48-.791c.03-.215.441-.444.726-.538a3.857,3.857,0,0,1,1.05-.019,37.495,37.495,0,0,0-10.719-11.645l-4.91,2.67q2.041,6.029,4.087,12.068c.891-.727,1.73-2.024,3.651-1.4-1.115,1.414-2.131,2.7-3.295,4.18a20.008,20.008,0,0,1,2.443.6c.386.148.663.576.989.879-.4.234-.777.623-1.194.667a11.087,11.087,0,0,1-2.008-.1V137.42l4.5-2.517.415.5-3.717,4.086a7.535,7.535,0,0,1,1.092,1.245,4.028,4.028,0,0,1,.244,1.328,3.055,3.055,0,0,1-1.225-.092A17.3,17.3,0,0,1,582.865,140.6Zm-24.223-13.487c-1.089-.384-2.08-.664-3-1.095-.353-.165-.55-.668-.817-1.018a3.7,3.7,0,0,1,1.279-.356c1.02.1,2.024.347,3.194.565.575-7.164,1.14-14.226,1.732-21.627-.824.9-1.421,1.55-2.008,2.2a8.3,8.3,0,0,1-5.62,2.989,4.668,4.668,0,0,1-5.444-4.5c-.061-.748-.094-1.5-.138-2.246l-.508-.1c-.987,2.33-1.973,4.659-3.055,7.209L547,108.55c.1.173.192.346.289.519l-3.137,2.746c1.112.966,2.289,1.881,3.316,2.94.339.349.293,1.071.425,1.622-.531-.081-1.18,0-1.569-.274-1.117-.8-2.131-1.744-3.2-2.648-1.636,3.33-2.854,13.28-2.1,16.71l2.112-.448c.085.14.172.279.256.419-.594.881-1.174,1.77-1.783,2.639-.785,1.118-.986,2.1.386,2.973a17.426,17.426,0,0,1,2.313,1.857,3.738,3.738,0,0,1,.583,1.03c-.4.137-.861.477-1.182.374a14.916,14.916,0,0,1-2.1-.993c.67,11.969,4.928,22.421,14.322,30.625.264-4.043.523-7.982.769-11.742l-1.7.455a7.607,7.607,0,0,1,.359-1.755,13.489,13.489,0,0,1,1.273-2c1.147-1.644.976-2.5-.636-3.627a16.928,16.928,0,0,1-1.685-1.523c.118-.191.235-.383.353-.574l2.919.9c.387-6.022.768-11.991,1.149-17.961a4.7,4.7,0,0,0-1.113,1.3,4.013,4.013,0,0,1-.856.644c-.163-.375-.517-.791-.451-1.118a7.931,7.931,0,0,1,.8-2.052C557.543,128.773,558.08,128.01,558.642,127.112Zm-18.083-15.638a20.141,20.141,0,0,1-2.012-1.17,6.052,6.052,0,0,1-.965-1.159,4.371,4.371,0,0,1,1.69-.261,12.826,12.826,0,0,1,2.223,1.005q2.768-6.23,5.325-11.99l-4.513-3.448c-3.766,3.1-6.255,7.273-9.4,11.279l3.375-.2c.072.21.146.421.217.63l-3.172,1.876a16.2,16.2,0,0,1,.861,2.233c.1.395-.18.879-.288,1.323-.414-.2-.962-.288-1.216-.61a22.719,22.719,0,0,1-1.451-2.353c-3.1,4.256-5.776,12.864-5.094,16.262l3.234-1.727.457.554-3.148,3.607c1.13.99,2.965,1.139,3.482,2.757-.093.186-.185.371-.279.557l-3.987-1.094a103.493,103.493,0,0,0,3.55,18.388c1.059-.921,2-1.738,2.938-2.555l.534.4c-.574,1.431-1.145,2.862-1.65,4.126.829.949,1.588,1.813,2.344,2.678-.112.13-.225.26-.336.39h-1.7c5.629,8.632,12.029,15.8,22.8,17.278-1.966-2.553-3.763-5.222-5.9-7.583-3.3-3.641-4.686-8.2-6.553-12.544a5.17,5.17,0,0,1-.225-1.16c-.688-3.908-1.375-7.817-2.111-12.017l-2.253,3.646-.6-.268c-.146-1.857,1.075-3.434,1.422-5.276a20.88,20.88,0,0,1-2.008-1.271,5.526,5.526,0,0,1-.873-1.168,4.247,4.247,0,0,1,1.593-.249,10.618,10.618,0,0,1,2.016.929c.425-6.081.848-12.124,1.259-18.016-.138.174-.442.545-.729.929-.3.409-.588.831-.925,1.307C537.544,116.163,537.544,116.163,540.559,111.474Zm29.617-3.64c.871-.352,2.048-.463,2.549-1.1,1.432-1.82.519-5.587-1.386-6.929a19.008,19.008,0,0,1-2.944-2.477,1.747,1.747,0,0,1-.2-1.669c.251-.344,1.089-.3,1.677-.341.2-.013.421.234.626.371,1.727,1.152,3.083,2.647,5.711,2.152,2.59-.487,4.784-1.1,6.2-3.4a2.25,2.25,0,0,0-1.828-3.516c-2.076-.069-4.159.042-6.235-.041a2.178,2.178,0,0,1-1.642-.735c-.417-.847.33-1.259,1.067-1.6a44.65,44.65,0,0,0,4.1-2.075c1.627-.967,3.009-4.322,2.57-6.128A2.643,2.643,0,0,0,579.627,79a4.381,4.381,0,0,0-4.684-.886A9.329,9.329,0,0,0,570.2,81.75c-1,1.588-1.876,3.264-2.93,4.817-.312.46-1.041.636-1.576.942a15.4,15.4,0,0,1-.551-1.8c-.047-.251.211-.546.276-.833.641-2.8,1.3-5.593.783-8.506-.4-2.259-1.883-3.471-4.12-2.928a15.489,15.489,0,0,0-4.474,1.885,3.752,3.752,0,0,0-1.843,3.5,16.871,16.871,0,0,0,3.315,9.52c.059.079.153.163.157.248.03.594.042,1.189.058,1.783a4.966,4.966,0,0,1-1.749-.05,15.419,15.419,0,0,1-1.973-1.309c-3.723-2.284-7.6-2.2-11.53-.645A1.874,1.874,0,0,0,542.8,91a7.252,7.252,0,0,0,8.981,4.125c2.089-.7,4.174-1.394,6.371-.7.6.191,1.072.81,1.6,1.234-.616.355-1.228.719-1.855,1.055a.793.793,0,0,1-.441-.007c-2.858-.443-4.9,1.2-6.949,2.765a1.288,1.288,0,0,0-.463.874,26.007,26.007,0,0,0,.071,4.416,2.562,2.562,0,0,0,3.117,2.043,6.4,6.4,0,0,0,4.225-2.247c1.178-1.4,2.293-2.849,3.439-4.275a1.772,1.772,0,0,1,2.778-.115,3.647,3.647,0,0,1,.358,1.691C564.283,105.767,566.5,107.877,570.176,107.834Z" transform="translate(-519.566 -71.125)"/>
        <path id="Path_632" data-name="Path 632" d="M582.388,98.572a3.123,3.123,0,0,1-3.066,3.3A3.307,3.307,0,0,1,576.1,98.82c.024-2.178.981-2.908,3.819-2.913C581.516,95.9,582.394,96.854,582.388,98.572Zm-4.645.741c.594.295,1.036.7,1.424.659a2.366,2.366,0,0,0,1.262-.806c.14-.151-.041-.6-.075-.919a6.581,6.581,0,0,0-1.365.222A7.013,7.013,0,0,0,577.743,99.313Z" transform="translate(-534.319 -77.591)"/>
      </g>
      <path id="Path_633" data-name="Path 633" d="M512.948,206.188c11.63-.6,23.236.412,34.8,1.579,9.773.986,19.622,2.327,29.459,2.217,6.945-.078,14.327-.59,21,1.681,3.1,1.052,5.743,3.148,6.542,6.435,1.021,4.192-1.877,8.839-4.449,11.876-5.04,5.955-12.631,7.125-20.046,7-8.3-.144-16.549-1.932-24.6-3.854-7.044-1.682-14.016-3.553-21.13-4.927-4.178-.806-8.42-1.758-12.1-3.991-2.956-1.8-4.039-4.363-5.16-7.5a98.393,98.393,0,0,1-2.935-10.04c-.268-1.114-1.981-.642-1.712.472a67.7,67.7,0,0,0,4.686,14.28c3.247,6.536,12.8,7.739,19.14,8.948,15.063,2.872,29.69,8.388,45.2,8.4,6.912,0,13.87-1.4,18.9-6.44,4.832-4.839,8.84-13.2,3.527-19.1-4.219-4.688-12.26-4.9-18.058-5.049-3.439-.087-6.878.032-10.318.048-4.454.022-8.912-.4-13.346-.788-16.444-1.438-32.863-3.868-49.414-3.021-1.14.058-1.145,1.836,0,1.777Z" transform="translate(-63.885 2391.142)"/>
      <path id="Path_634" data-name="Path 634" d="M519.146,217.752c-.434-.462-.2-.411.3-.711.719-.432,1.457-.83,2.171-1.269a16.464,16.464,0,0,1,5.729-2.31c3.993-.751,8.2.355,12,1.53,3.578,1.108,7.035,2.6,10.667,3.529a64.931,64.931,0,0,0,11.864,1.857c7.564.487,15.124-.653,22.612-1.564,7.767-.945,14.886,3.543,22.5,4.185,1.142.1,1.133-1.681,0-1.777-4.087-.344-7.939-1.769-11.851-2.9a30.365,30.365,0,0,0-12.567-1.049c-8.579,1.054-17.129,2.052-25.746.809a68.251,68.251,0,0,1-13.084-3.475,49.626,49.626,0,0,0-12.136-3.064,18.051,18.051,0,0,0-11.4,3.01c-1.826,1.123-4.448,2.181-2.318,4.456.783.838,2.038-.421,1.256-1.256Z" transform="translate(-65.19 2389.253)"/>
      <path id="Path_635" data-name="Path 635" d="M524.164,226.427a2.859,2.859,0,0,0-1.124-.19q-.619.009.347.234a15.2,15.2,0,0,1,6.021-3.1,21.458,21.458,0,0,1,10.1.191c6.6,1.437,12.664,4.623,18.912,7.071,14.929,5.854,31.158-2.381,46.283,2.305,1.1.34,1.563-1.375.472-1.713-8.321-2.578-16.936-1.432-25.439-.667a68.567,68.567,0,0,1-13.114.157c-4.514-.46-8.564-2.089-12.693-3.851-6.6-2.814-13.5-5.892-20.817-5.772a17.581,17.581,0,0,0-9.487,2.981c-1.247.833-2.414,1.483-2.069,3.1.231,1.08,1.423.7,2.142.968,1.076.4,1.536-1.319.471-1.712Z" transform="translate(-66.338 2386.745)"/>
    </g>
  </g>
</svg>
