<svg xmlns="http://www.w3.org/2000/svg" xmlns:xlink="http://www.w3.org/1999/xlink" width="24" height="24" viewBox="0 0 24 24">
  <defs>
    <clipPath id="clip-path">
      <rect id="Rectangle_11" data-name="Rectangle 11" width="24" height="24" transform="translate(1280 80)" fill="#fff" stroke="#707070" stroke-width="1"/>
    </clipPath>
  </defs>
  <g id="Mask_Group_2" data-name="Mask Group 2" transform="translate(-1280 -80)" clip-path="url(#clip-path)">
    <g id="paper-bag" transform="translate(1280 80)">
      <g id="Bag">
        <g id="Group_517" data-name="Group 517">
          <path id="Path_652" data-name="Path 652" d="M21,6.682A.75.75,0,0,0,20.25,6H16.5V4.5a4.5,4.5,0,0,0-9,0V6H3.75A.75.75,0,0,0,3,6.682l-1.5,16.5A.751.751,0,0,0,2.25,24h19.5a.751.751,0,0,0,.747-.818ZM9,4.5a3,3,0,0,1,6,0V6H9Zm-5.928,18,1.363-15H7.5V9.208a1.5,1.5,0,1,0,1.5,0V7.5h6V9.208a1.5,1.5,0,1,0,1.5,0V7.5h3.065l1.363,15Z"/>
        </g>
      </g>
    </g>
  </g>
</svg>
