<svg xmlns="http://www.w3.org/2000/svg" width="114.686" height="110.353" viewBox="0 0 114.686 110.353">
  <g id="Group_256" data-name="Group 256" transform="translate(1.02 1.051)">
    <path id="Path_312" data-name="Path 312" d="M330.283,1011.978c1.382-.772,2.379-2.237,4.132-2.672.338-.37,1.384-.772,1.415-.065" transform="translate(-281.747 -950.731)" fill="none" stroke="#8ab337" stroke-miterlimit="10" stroke-width="2"/>
    <path id="Path_313" data-name="Path 313" d="M370.888,1009.109a3.831,3.831,0,0,1,4.006,2.3" transform="translate(-289.509 -950.779)" fill="none" stroke="#8ab337" stroke-miterlimit="10" stroke-width="2"/>
    <path id="Path_314" data-name="Path 314" d="M355.46,1035.416c.661-1.094,2.043-1.865,3.057-2.976" transform="translate(-286.559 -955.24)" fill="none" stroke="#8ab337" stroke-miterlimit="10" stroke-width="2"/>
    <path id="Path_315" data-name="Path 315" d="M355.435,1035.682c-.3,1.077,2.2,1.673,2.911,1.64" transform="translate(-286.55 -955.86)" fill="none" stroke="#8ab337" stroke-miterlimit="10" stroke-width="2"/>
    <path id="Path_316" data-name="Path 316" d="M355.422,1036.119c-.658,1.094.886,3.861,1.272,4.553" transform="translate(-286.521 -955.943)" fill="none" stroke="#8ab337" stroke-miterlimit="10" stroke-width="2"/>
    <g id="Group_255" data-name="Group 255" transform="translate(0 0)">
      <path id="Path_317" data-name="Path 317" d="M333.929,964.328c-4.184-8.793-12.955-14.538-22.092-17.9-11.088-4.7-25.845-6.861-34.357,3.456-7.184,8.365-8.491,21.191-6.129,31.485,3.025,14.519,14.866,25.326,26.619,34.246,6.865,5.362,14.65,10.207,21.984,15.546a157.627,157.627,0,0,1,16.258,14.388" transform="translate(-270.275 -938.049)" fill="none" stroke="#8ab337" stroke-miterlimit="10" stroke-width="2"/>
      <path id="Path_318" data-name="Path 318" d="M337.769,951.866c-1.03-1.845,3.066-5.342,3.967-6.328,3.6-3.946,7.226-7.422,12.4-8.13,6.091-1.223,12.782.363,18.123,3.429,5.811,3.044,8.9,8.577,10.619,15.119,1.63,4.653,2.81,9.8,2.1,15.034a117.079,117.079,0,0,1-5.893,26.272c-2.081,6.242-5.617,11.6-8.663,17.417-2.187,3.882-3.924,7.27-6.582,11.174a84.21,84.21,0,0,0-8.877,12.7c-1.308,2.423-2.143,4.826-4.931,5.9" transform="translate(-283.146 -936.994)" fill="none" stroke="#8ab337" stroke-miterlimit="10" stroke-width="2"/>
      <path id="Path_319" data-name="Path 319" d="M330.379,979.438c-.086-1.888-2.981-3.175-4.4-3.111a5.816,5.816,0,0,0-4.61,2.575" transform="translate(-280.043 -944.513)" fill="none" stroke="#8ab337" stroke-miterlimit="10" stroke-width="2"/>
      <path id="Path_320" data-name="Path 320" d="M379.064,981.435c.428-.965-1.03-1.845-1.523-2.3a3.662,3.662,0,0,0-4.676,1.16" transform="translate(-289.887 -944.971)" fill="none" stroke="#8ab337" stroke-miterlimit="10" stroke-width="2"/>
    </g>
    <path id="Path_321" data-name="Path 321" d="M325.527,1002.884c-.032-.708.307-1.079.29-1.433a29.271,29.271,0,0,1,2.267-4.712c1.028-.757,2.766-1.545,3.859-.885,1.449.643,1.562,3.12,3.364,3.747" transform="translate(-280.837 -948.199)" fill="none" stroke="#8ab337" stroke-miterlimit="10" stroke-width="2"/>
    <path id="Path_322" data-name="Path 322" d="M370.628,1002.149c.34-.37.661-1.1,1-1.465a7.726,7.726,0,0,1,1.641-2.911c1.382-.772,2.765-1.545,4.23-.547a7.479,7.479,0,0,1,1.576,3.474" transform="translate(-289.459 -948.418)" fill="none" stroke="#8ab337" stroke-miterlimit="10" stroke-width="2"/>
    <path id="Path_323" data-name="Path 323" d="M334.119,1010.345c.1,2.123,1.61,4.182,2.736,5.548,2.316,4.15,6.016,7.528,11,8.009a21.8,21.8,0,0,0,4.97.129c2.139.256,4.2-1.256,5.9-2.752a35.512,35.512,0,0,0,5.355-6.981,18.944,18.944,0,0,0,1.593-3.973" transform="translate(-282.48 -951.012)" fill="none" stroke="#8ab337" stroke-miterlimit="10" stroke-width="2"/>
    <path id="Path_324" data-name="Path 324" d="M319.306,1031.629a6.867,6.867,0,0,0,3.266,1.626,30.41,30.41,0,0,0,8.219,1.4c3.91.176,8.172.335,12.1.866,1.771-.081,3.877-.531,5.325.112" transform="translate(-279.648 -955.085)" fill="none" stroke="#8ab337" stroke-miterlimit="10" stroke-width="2"/>
    <path id="Path_325" data-name="Path 325" d="M384.494,1018.763a6.513,6.513,0,0,0,2.443-.82,15.334,15.334,0,0,1,5.678.1,30.51,30.51,0,0,1,5.679.095,5.135,5.135,0,0,1,2.511.6" transform="translate(-292.11 -952.424)" fill="none" stroke="#8ab337" stroke-miterlimit="10" stroke-width="2"/>
    <path id="Path_326" data-name="Path 326" d="M403.763,1017.846c1.077.3,2.075-1.157,2.766-1.545a5.711,5.711,0,0,1,2.413-1.528" transform="translate(-295.793 -951.863)" fill="none" stroke="#8ab337" stroke-miterlimit="10" stroke-width="2"/>
    <path id="Path_327" data-name="Path 327" d="M404.98,1018.074c.016.354-.338.371-.32.726.721.32,3.922.531,3.971,1.591" transform="translate(-295.965 -952.494)" fill="none" stroke="#8ab337" stroke-miterlimit="10" stroke-width="2"/>
    <path id="Path_328" data-name="Path 328" d="M404.179,1018.115c1.111,1.013,2.623,3.071,2.688,4.488" transform="translate(-295.873 -952.501)" fill="none" stroke="#8ab337" stroke-miterlimit="10" stroke-width="2"/>
    <path id="Path_329" data-name="Path 329" d="M339.081,1052.508c1.48,1.351.531,3.877.242,5.307-.562,3.218-2.17,6.835-4.921,8.735a6.552,6.552,0,0,1-2.443.822,8.545,8.545,0,0,1-2.929-1.994,8.772,8.772,0,0,1-3.057-4.826" transform="translate(-280.923 -959.076)" fill="none" stroke="#8ab337" stroke-miterlimit="10" stroke-width="2"/>
    <path id="Path_330" data-name="Path 330" d="M325.454,1063.328a3.011,3.011,0,0,0-2.365,2.591" transform="translate(-280.371 -961.145)" fill="none" stroke="#8ab337" stroke-miterlimit="10" stroke-width="2"/>
    <path id="Path_331" data-name="Path 331" d="M361.728,1057.009c1.738-.786,2.718-2.606,4.439-3.747,1.4-.419,2.784-1.191,4.2-1.256,3.554.193,5.566,5.42,6.048,8.236" transform="translate(-287.758 -958.98)" fill="none" stroke="#8ab337" stroke-miterlimit="10" stroke-width="2"/>
    <path id="Path_332" data-name="Path 332" d="M379.9,1061.8c1.4-.419,2.413-1.53,3.813-1.948a8.91,8.91,0,0,0,2.412-1.528" transform="translate(-291.232 -960.189)" fill="none" stroke="#8ab337" stroke-miterlimit="10" stroke-width="2"/>
  </g>
</svg>
