<svg xmlns="http://www.w3.org/2000/svg" width="110.927" height="113.848" viewBox="0 0 110.927 113.848">
  <g id="Group_254" data-name="Group 254" transform="translate(0.738 1.002)">
    <path id="Path_287" data-name="Path 287" d="M1029.754,958.043c3.366-9.137,11.579-15.659,20.372-19.842,10.614-5.685,25.113-9.181,34.528.318,7.914,7.677,10.384,20.33,8.968,30.8-1.691,14.734-12.5,26.575-23.393,36.527-6.347,5.964-13.66,11.5-20.478,17.482a157.667,157.667,0,0,0-14.882,15.809" transform="translate(-984.83 -932.604)" fill="none" stroke="#c68080" stroke-miterlimit="10" stroke-width="2"/>
    <path id="Path_288" data-name="Path 288" d="M1028.746,945.913c.858-1.931-3.539-5.039-4.525-5.94-3.948-3.6-7.873-6.733-13.084-6.968-6.178-.665-12.7,1.525-17.737,5.063-5.511,3.56-8.082,9.352-9.2,16.022-1.2,4.783-1.908,10.015-.727,15.162a117.043,117.043,0,0,0,8.26,25.628c2.639,6.027,6.65,11.045,10.212,16.556,2.53,3.667,4.568,6.883,7.571,10.529a84.148,84.148,0,0,1,10,11.837c1.522,2.294,2.574,4.61,5.448,5.425" transform="translate(-975.867 -932.658)" fill="none" stroke="#c68080" stroke-miterlimit="10" stroke-width="2"/>
    <path id="Path_289" data-name="Path 289" d="M1009.589,1058.094c1.352-1.48,1.737-3.387,2.123-5.3.429-.965.343-2.853,1.243-3.839,1.887-.085,3.84,1.243,5.318,2.594,1.439.408,3.84,1.243,4.376,2.638" transform="translate(-980.975 -954.846)" fill="none" stroke="#c68080" stroke-miterlimit="10" stroke-width="2"/>
    <path id="Path_290" data-name="Path 290" d="M1001.873,1057.684c1.93.857,3.881,2.188,6.241,2.079" transform="translate(-979.5 -956.515)" fill="none" stroke="#c68080" stroke-miterlimit="10" stroke-width="2"/>
    <path id="Path_291" data-name="Path 291" d="M1039.5,1051.871c-1.221,4.311.409,8.965,2.469,12.654.514.922,1.071,2.788,2.486,2.723s2.768-1.545,3.218-2.038a11.241,11.241,0,0,0,3.967-6.327" transform="translate(-986.613 -955.404)" fill="none" stroke="#c68080" stroke-miterlimit="10" stroke-width="2"/>
    <path id="Path_292" data-name="Path 292" d="M1054.613,1060.541c.042.943,1.5,1.822,2.016,2.744.022.472,1.48,1.352,1.524,2.294" transform="translate(-989.582 -957.061)" fill="none" stroke="#c68080" stroke-miterlimit="10" stroke-width="2"/>
    <path id="Path_293" data-name="Path 293" d="M994.043,1016.225a11.855,11.855,0,0,0-3.389-1.737c-3.345-.793-6.221-1.608-9.522-1.457" transform="translate(-975.535 -947.976)" fill="none" stroke="#c68080" stroke-miterlimit="10" stroke-width="2"/>
    <path id="Path_294" data-name="Path 294" d="M978.932,1012.465c-.472.022-.987-.9-1.459-.878a9.873,9.873,0,0,0-2.917-1.758c.965.428,1.952,1.329,2.917,1.758.493.449.514.921.987.9" transform="translate(-974.278 -947.367)" fill="none" stroke="#c68080" stroke-miterlimit="10" stroke-width="2"/>
    <path id="Path_295" data-name="Path 295" d="M977.9,1012.557c-.407,1.437-2.787,1.074-3.688,2.06" transform="translate(-974.212 -947.888)" fill="none" stroke="#c68080" stroke-miterlimit="10" stroke-width="2"/>
    <path id="Path_296" data-name="Path 296" d="M978.891,1013.7c.537,1.394-2.25,2.466-2.185,3.882" transform="translate(-974.689 -948.107)" fill="none" stroke="#c68080" stroke-miterlimit="10" stroke-width="2"/>
    <g id="Group_253" data-name="Group 253" transform="translate(48.556 64.894)">
      <path id="Path_297" data-name="Path 297" d="M1068.306,1012.836c-2.788,1.074-13.511,4.4-16.277,5.943a108.114,108.114,0,0,1-13.039,4.377" transform="translate(-1035.151 -1012.836)" fill="none" stroke="#c68080" stroke-miterlimit="10" stroke-width="2"/>
      <path id="Path_298" data-name="Path 298" d="M1037.117,1024.872a6.71,6.71,0,0,0-2.873-.815" transform="translate(-1034.244 -1014.98)" fill="none" stroke="#c68080" stroke-miterlimit="10" stroke-width="2"/>
      <path id="Path_299" data-name="Path 299" d="M1036.74,1026.258a12.564,12.564,0,0,0-2.231,2.938" transform="translate(-1034.295 -1015.402)" fill="none" stroke="#c68080" stroke-miterlimit="10" stroke-width="2"/>
      <path id="Path_300" data-name="Path 300" d="M1038.823,1025.6a20.087,20.087,0,0,1-.706,5.232" transform="translate(-1034.984 -1015.275)" fill="none" stroke="#c68080" stroke-miterlimit="10" stroke-width="2"/>
    </g>
    <path id="Path_301" data-name="Path 301" d="M1050.153,989.916a3.61,3.61,0,0,1,.836-2.4c.878-1.458,1.458.88,1.5,1.823.065,1.415-.192,6.154-2.165,4.354-.986-.9-.664-4.226.235-5.212" transform="translate(-988.646 -943.012)" fill="none" stroke="#c68080" stroke-miterlimit="10" stroke-width="2"/>
    <path id="Path_302" data-name="Path 302" d="M1004.229,996.06l-.451.495c-.043-.945-.065-1.417-.087-1.888-.108-2.36,1.8-1.974,2.36-.108.043.943-.3,3.8-1.758,2.916a3.008,3.008,0,0,1-.129-2.831" transform="translate(-979.847 -944.155)" fill="none" stroke="#c68080" stroke-miterlimit="10" stroke-width="2"/>
    <path id="Path_303" data-name="Path 303" d="M1010.055,1005.7a3.876,3.876,0,0,1,.32-3.323c.814-2.874,3.239-1.566,5.169-.708,2.445,1.779,4.375,2.636,7.142,1.091,2.272-1.994,4.052-4.441,6.862-5.041,3.732-1.115,6.349,4.439,4.59,7.357a14.149,14.149,0,0,1-5.382,6.391c-2.274,1.994-5.1,2.123-8.407,2.274-2.853-.343-5.727-1.158-7.722-3.43a8.841,8.841,0,0,1-2.659-6.5" transform="translate(-981.017 -945.024)" fill="none" stroke="#c68080" stroke-miterlimit="10" stroke-width="2"/>
    <path id="Path_304" data-name="Path 304" d="M1022.709,1013.714c-.066-1.415,1.736-3.39,3.13-3.924a3.46,3.46,0,0,1,2.872.814,5.1,5.1,0,0,1,1.568,3.239" transform="translate(-983.483 -947.356)" fill="none" stroke="#c68080" stroke-miterlimit="10" stroke-width="2"/>
    <path id="Path_305" data-name="Path 305" d="M1016.34,1015.048a4.26,4.26,0,0,1,.363-2.38,4.921,4.921,0,0,1,3.689-2.06c.945-.042,2.359-.108,2.853.345" transform="translate(-982.261 -947.51)" fill="none" stroke="#c68080" stroke-miterlimit="10" stroke-width="2"/>
    <path id="Path_306" data-name="Path 306" d="M1024.556,1003.438c-.387,1.908,2.487,2.723,3.86,1.714a13.079,13.079,0,0,0,.277-4.267l-.471.02" transform="translate(-983.829 -945.657)" fill="none" stroke="#c68080" stroke-miterlimit="10" stroke-width="2"/>
    <path id="Path_307" data-name="Path 307" d="M1021.927,1004.516c.515.923-.385,1.909-1.328,1.951a2.848,2.848,0,0,1-1.91-.383c-.493-.452-1.05-2.318-.107-2.36" transform="translate(-982.596 -946.2)" fill="none" stroke="#c68080" stroke-miterlimit="10" stroke-width="2"/>
    <path id="Path_308" data-name="Path 308" d="M1017.1,1002.756c.043.945.064,1.415-1.33,1.951-.45.495-.922.515-1.886.086-1.458-.878-1.052-2.316-.172-3.773" transform="translate(-981.612 -945.683)" fill="none" stroke="#c68080" stroke-miterlimit="10" stroke-width="2"/>
    <path id="Path_309" data-name="Path 309" d="M1029.679,1000.388c.537,1.393,1.052,2.316,2.468,2.251,1.888-.085,2.766-1.545,2.68-3.433-.021-.471-.043-.943-.514-.921" transform="translate(-984.815 -945.16)" fill="none" stroke="#c68080" stroke-miterlimit="10" stroke-width="2"/>
    <path id="Path_310" data-name="Path 310" d="M1047.124,972.371c-.087-1.888,2.68-3.433,4.1-3.5a5.812,5.812,0,0,1,4.826,2.143" transform="translate(-988.15 -939.537)" fill="none" stroke="#c68080" stroke-miterlimit="10" stroke-width="2"/>
    <path id="Path_311" data-name="Path 311" d="M999.448,978.756c-.514-.923.859-1.931,1.309-2.425a3.664,3.664,0,0,1,4.762.73" transform="translate(-979.015 -940.854)" fill="none" stroke="#c68080" stroke-miterlimit="10" stroke-width="2"/>
  </g>
</svg>
