<svg xmlns="http://www.w3.org/2000/svg" width="54.837" height="13" viewBox="0 0 54.837 13">
  <g id="Symbol_12_1" data-name="Symbol 12 – 1" transform="translate(-1462.736 -2220)">
    <g id="Group_519" data-name="Group 519" transform="translate(224 -6)">
      <path id="Path_336" data-name="Path 336" d="M1195.527,404.358l-.8-.869a1.851,1.851,0,0,0-2.534,0l-.756.777a6.842,6.842,0,0,1-3.318,1.944h10.307A7.114,7.114,0,0,1,1195.527,404.358Z" transform="translate(73.935 1823.012)" fill="#c68080"/>
      <path id="Path_337" data-name="Path 337" d="M1195.527,429.849l-.8.867a1.851,1.851,0,0,1-2.534,0l-.756-.776a6.833,6.833,0,0,0-3.318-1.944h10.306A7.1,7.1,0,0,0,1195.527,429.849Z" transform="translate(73.935 1807.783)" fill="#c68080"/>
      <g id="Group_261" data-name="Group 261" transform="translate(1238.736 2228.685)">
        <g id="Group_260" data-name="Group 260" transform="translate(0 0)">
          <path id="Path_338" data-name="Path 338" d="M1180.034,417.153H1131.7c-1.827,0-3.216-1.563-3.216-3.735a3.355,3.355,0,0,1,3.29-3.562h48.183a3.458,3.458,0,0,1,3.364,3.562A3.506,3.506,0,0,1,1180.034,417.153Z" transform="translate(-1128.487 -409.855)" fill="#c68080"/>
        </g>
      </g>
    </g>
  </g>
</svg>
