<svg xmlns="http://www.w3.org/2000/svg" width="237.651" height="75.19" viewBox="0 0 237.651 75.19">
  <g id="Group_539" data-name="Group 539" transform="translate(-997.205 -2631.04)">
    <text id="I_CACTUS" data-name="I   CACTUS" transform="translate(1115.837 2681.135) rotate(-0.059)" font-size="50" font-family="Junkoung" letter-spacing="0.02em"><tspan x="-91.1" y="0" xml:space="preserve">I   CACTUS</tspan></text>
    <g id="Group_269" data-name="Group 269" transform="translate(1049.926 2643.729) rotate(21)">
      <path id="Path_356" data-name="Path 356" d="M4.783,18.335c.626-1.994,3-7.894,1.084-6.758C4.1,12.626.579,10.947.527,9.364-1.251,9.751,2.2,11.905.29,11.607c-.361-1.575.013-5.887.93-2.821,1.1,3.486,2.089,5.361,2.171,8.29C5.838,18.627,7.735,15.967,9,14.565c1.814-1.761,2.824-1.942,2.519-5.4C11.375,6.639,14.177.687,16.484.816,19.824,1,14.307,12.8,13.658,14.557c-1.43,3.573,2.163,2.946-.13,5.4,2.04-.5-1.374.548,0-1.149a14.206,14.206,0,0,0,3.035-7.466c.185-2.3.853-4.562.511-7.01C16.936,3.284,19.4.594,19.927,0c1.768,1.964-1.627,7.766-1.439,10.032.211,2.5.577,4.819.038,7.022a9.927,9.927,0,0,1-3.2,5.068c-.676.781.435,2.484.133,3.6,2.4.339,2.877-3.646,4.073-5.761.957-1.766.883-3.217.761-5.511-.08-2.558.083-5.1-.239-7.677" transform="translate(5.053 5.572)" fill="none" stroke="#8ab337" stroke-miterlimit="10" stroke-width="8"/>
      <path id="Path_357" data-name="Path 357" d="M0,.547C1.076-1.669,5.344,3.733,5.318,1.2" transform="translate(8.862 18.176)" fill="none" stroke="#8ab337" stroke-miterlimit="10" stroke-width="1"/>
      <path id="Path_358" data-name="Path 358" d="M13.764,14.864c.3-1.412.481-2.777.884-4.075C15.722,7.328,17.24,4.1,20.165,1.771c3.876-3.09,8.326-2.049,10.423,2.44a16.233,16.233,0,0,1,.675,11.09c-.941,3.748-2.231,7.411-3.372,11.11-.858,2.786-1.732,5.568-2.577,8.359-.281.929-.568,1.044-1.5.745-1.151-.371-2.342-.61-3.512-.924A37.5,37.5,0,0,1,8.187,28.816C4.479,26.162,2.3,22.235.832,17.982A16.072,16.072,0,0,1,0,13.265c-.084-3.049,2.185-4.772,5.175-4.09,3.2.729,5.665,2.663,7.895,4.954C13.3,14.36,13.513,14.6,13.764,14.864Zm9.841,19.068c1.243-3.567,2.486-7.055,3.675-10.562,1.286-3.793,2.6-7.591,2.908-11.625a12.421,12.421,0,0,0-1.4-7.529c-1.381-2.321-3.251-3.1-5.742-2.2a6.3,6.3,0,0,0-2.4,1.488c-3.681,3.919-5.624,8.488-4.953,13.976.042.345-.191.992-.4,1.038a1.492,1.492,0,0,1-1.163-.368,10.418,10.418,0,0,1-1.024-1.438C11,13.881,8.436,11.622,4.928,10.725c-2.131-.544-3.528.527-3.339,2.7a17.553,17.553,0,0,0,1.16,5.142c1.841,4.446,4.4,8.378,8.916,10.619,1.5.744,2.985,1.521,4.478,2.281A30.535,30.535,0,0,0,23.605,33.931Z" stroke="#000" stroke-miterlimit="10" stroke-width="2"/>
    </g>
    <g id="Group_270" data-name="Group 270" transform="translate(1222.825 2652.642) rotate(23)">
      <path id="Path_359" data-name="Path 359" d="M0,12.365C2.942,7.992,6.548,4.054,9.867,0" fill="none" stroke="#000" stroke-miterlimit="10" stroke-width="3"/>
      <path id="Path_360" data-name="Path 360" d="M0,6.809C4.557,4.162,9.523,2.2,14.28,0" transform="translate(1.55 9.345)" fill="none" stroke="#000" stroke-miterlimit="10" stroke-width="3"/>
      <path id="Path_361" data-name="Path 361" d="M15.752,1.462C10.56.548,5.221.419,0,0" transform="translate(3.29 20.091)" fill="none" stroke="#000" stroke-miterlimit="10" stroke-width="3"/>
    </g>
    <g id="Group_271" data-name="Group 271" transform="translate(1000.068 2656.005) rotate(23)">
      <path id="Path_362" data-name="Path 362" d="M15.752,1.46C10.56.548,5.222.418,0,0" fill="none" stroke="#000" stroke-miterlimit="10" stroke-width="3"/>
      <path id="Path_363" data-name="Path 363" d="M14.806,0C9.737,1.45,4.879,3.667,0,5.573" transform="translate(2.603 5.202)" fill="none" stroke="#000" stroke-miterlimit="10" stroke-width="3"/>
      <path id="Path_364" data-name="Path 364" d="M0,12.364C2.942,7.991,6.549,4.053,9.866,0" transform="translate(9.175 9.186)" fill="none" stroke="#000" stroke-miterlimit="10" stroke-width="3"/>
    </g>
  </g>
</svg>
