<svg xmlns="http://www.w3.org/2000/svg" width="75.135" height="48.829" viewBox="0 0 75.135 48.829">
  <path id="Path_629" data-name="Path 629" d="M787.225,682.5c4.8,3.476,10.171,2.705,15.732,2.377a29.573,29.573,0,0,1-4.782-11.05,8.567,8.567,0,0,1-.189-3.131c.412-2.508,2.475-3.469,4.762-2.359a9.356,9.356,0,0,1,4.093,3.98c.2.356.4.71.6,1.082.929-.521,1.779-1.055,2.675-1.49,1.818-.881,3.7-1.114,5.307.324a5.556,5.556,0,0,1,1.791,5.643,8.207,8.207,0,0,1-4.828,6.013c-1.767.761-3.6,1.365-5.4,2.037,1.961,2.724,11.46,6.191,18.736,4.187-.306-.53-.588-1.043-.893-1.543a22.762,22.762,0,0,1-2.9-7.857,5.689,5.689,0,0,1,1.87-5.36,3.467,3.467,0,0,1,4.464-.222c2.033,1.244,3.14,3.166,3.847,5.8.414-.347.681-.584.961-.8,2.26-1.748,4.756-1.014,7.163-.548a2.156,2.156,0,0,1,1.144,1.642c.135,2.3-.4,4.5-2.418,5.857a57.631,57.631,0,0,1-5.863,3.29,28,28,0,0,1-3.145,1.153,24.319,24.319,0,0,0,5.822,4.269,21.359,21.359,0,0,0,14.835,1.123c1.2-.311,2.414-.6,3.632-.837a19.688,19.688,0,0,1,2.188-.154,7.823,7.823,0,0,1-4.465,2.847c-8.47,2.4-16.151,1.047-22.7-5.077a4.383,4.383,0,0,0-4.142-1.379,25.021,25.021,0,0,1-16.074-2.531,20.993,20.993,0,0,1-3.851-2.645,2.583,2.583,0,0,0-2.231-.7,33.527,33.527,0,0,1-10.718-.286A6,6,0,0,1,787.225,682.5Z" transform="matrix(0.966, -0.259, 0.259, 0.966, -933.262, -423.464)" fill="#e4b6be"/>
</svg>
