<svg xmlns="http://www.w3.org/2000/svg" width="278.497" height="31.468" viewBox="0 0 278.497 31.468">
  <g id="Group_557" data-name="Group 557" transform="translate(-140 -377)">
    <g id="Symbol_19_1" data-name="Symbol 19 – 1" transform="translate(-380.68 -568.201)">
      <g id="Group_556" data-name="Group 556" transform="translate(-35)">
        <path id="Path_19" data-name="Path 19" d="M721.613,827.136c3.413,0,8.776-2.763,7.476-7.151-1.3-4.226-6.338-4.226-9.589-2.925" transform="translate(-22.443 135.864)" fill="none" stroke="#c68080" stroke-miterlimit="10" stroke-width="5"/>
        <g id="Group_12" data-name="Group 12" transform="translate(664.68 947.201)">
          <path id="Path_20" data-name="Path 20" d="M622.488,807.433s4.421-.455,4.27,0c1.822-.759.322-.911,2.447-.607.608,4.1-5.162,7.592-4.251,11.388,2.733-1.67,6.074-5.314,8.352-7.9,1.215-1.367,4.214-6.074,2.885-2.581s-2.13,9.269-4.1,12.3c-1.367,2.278.911,3.037,2.43.455,1.366-2.278,1.67-4.707,3.037-6.985,1.669-2.733,5.087-8.086,6.073-7.288s-1.063,7.744-2.126,10.477c-1.215,2.885-1.822,5.618-3.492,8.048-1.367,2.278-5.922,1.822-8.807,1.822-3.644,0-1.84-.222-2.447-3.411-.456-1.974-.589-9.5,2.447-8.585,4.252,1.215,3.8,9.718,6.985,12,1.367.759,7.985-.3,9.5,0,6.073.911,6.136-1.67,6.288-7.592,0-3.587.271-7.31-.622-10.754-.025-.1-4.086,8.628-4.845,13.183-.456,2.43-3.8,6.681-5.163,3.037-1.063-2.581,1.215-7.44,1.822-9.718.374-1.5,6.713-8.094,7.346-9.389" transform="translate(-621.643 -803.936)" fill="none" stroke="#c68080" stroke-miterlimit="10" stroke-width="6"/>
          <g id="Group_11" data-name="Group 11" transform="translate(0 0)">
            <path id="Path_21" data-name="Path 21" d="M622.187,801.25a1.925,1.925,0,0,0-2.114,1.98c-.009.187-.029.374-.049.56a28.95,28.95,0,0,0,.092,6.392c.365,3.093.758,6.184,1.158,9.273.176,1.358.386,2.712.605,4.064a3.258,3.258,0,0,0,1.612,2.46,9.253,9.253,0,0,0,2.287.893c.981.233,2.007.267,3,.448a34.087,34.087,0,0,0,7.778.5c1.383-.067,2.763-.216,4.146-.3a30.036,30.036,0,0,0,9.442-1.907,4.771,4.771,0,0,0,3.255-4.174c.076-.709.165-1.416.241-2.06.639-.07,1.18-.1,1.712-.191a8.946,8.946,0,0,0,5.67-3.154,13.13,13.13,0,0,0,3.087-6.554,5.411,5.411,0,0,0-4.849-6.021,8.01,8.01,0,0,0-3.755.57c-.57.223-1.128.482-1.7.73a14.4,14.4,0,0,0-.061-1.6,7.364,7.364,0,0,0-.415-1.664c-.2-.489-.531-.542-1.022-.347a1.933,1.933,0,0,1-.5.065m1.335,16.01c-.1,1.427-.146,2.858-.275,4.282a5.052,5.052,0,0,1-.421,1.472,4.215,4.215,0,0,1-2.62,2.166,29.741,29.741,0,0,1-9.99,1.727c-1.368.057-2.733.207-4.1.265a32.947,32.947,0,0,1-7.073-.543,20.235,20.235,0,0,1-3.942-.741,3.057,3.057,0,0,1-2.077-2.167c-.211-.908-.33-1.837-.476-2.759a.445.445,0,0,1,.106-.32,6.964,6.964,0,0,0,1.66-3.148,3.5,3.5,0,0,0-.061-1.6c-.166-.617-.637-.748-1.171-.385a13,13,0,0,0-1.157,1.006c-.136-1.051-.291-2.05-.392-3.054-.2-1.968-.444-3.935-.522-5.909-.062-1.566.087-3.142.165-4.713a1.02,1.02,0,0,1,1.243-.733,8.479,8.479,0,0,0,3.069.476c.9-.008,1.8.074,2.7.089,1.261.021,2.525-.031,3.782.031,3.123.157,6.217-.312,9.331-.359,1.9-.029,3.8-.028,5.7-.093,1.711-.059,3.421-.193,5.132-.288,1.137-.063,1.2-.034,1.269,1.1.056.929.017,1.864.021,2.889-.194-.125-.294-.187-.392-.253a1.035,1.035,0,0,0-1.179-.158,1.079,1.079,0,0,0-.412,1.118,3.459,3.459,0,0,0,1.3,2.3,2.087,2.087,0,0,1,.761,1.44A38.137,38.137,0,0,1,653.144,817.217Zm9.978-6.5a13.542,13.542,0,0,1-2.88,5.135,8.319,8.319,0,0,1-5.074,2.643c-.292.047-.584.092-.878.122-.369.038-.6-.082-.575-.511.032-.543.052-1.089.062-1.634,0-.268.089-.371.382-.388a2.613,2.613,0,0,0,.991-.22,10.629,10.629,0,0,0,3.811-2.875,5,5,0,0,0,1.075-4.075A1.881,1.881,0,0,0,659,807.495a3.341,3.341,0,0,0-3.587.026c-.544.354-1.081.72-1.684,1.123,0-.718.005-1.4.008-2.072.005-1.181.021-1.141,1.144-1.584a13.535,13.535,0,0,1,2.959-.8,4.773,4.773,0,0,1,4.151,1.331C663.6,806.989,663.707,808.783,663.122,810.713Zm-9.137,2.872c-.041-1.228-.151-2.454-.194-3.682a.9.9,0,0,1,.269-.678,15.631,15.631,0,0,1,2.237-1.418,2.535,2.535,0,0,1,2.66.506,1.505,1.505,0,0,1,.459,1.369,4.8,4.8,0,0,1-1.875,3.761,24.99,24.99,0,0,1-2.259,1.573,7.1,7.1,0,0,1-1.415.481C653.916,814.755,654,814.168,653.985,813.586Z" transform="translate(-619.889 -801.036)" stroke="#000" stroke-width="1"/>
            <path id="Path_22" data-name="Path 22" d="M629.378,817.5a2.34,2.34,0,0,1,1.378-1.377,1.183,1.183,0,0,1,1.726,1.008,2.873,2.873,0,0,1-.592,1.88c-.542.816-1.143,1.593-1.707,2.395-.247.348-.5.346-.827.109a8.084,8.084,0,0,1-2.676-3.526,1.126,1.126,0,0,1,.419-1.442,1.345,1.345,0,0,1,1.633.2C628.945,816.969,629.133,817.213,629.378,817.5Z" transform="translate(-624.402 -811.133)" stroke="#000" stroke-width="2"/>
            <path id="Path_23" data-name="Path 23" d="M690.166,843.234a12,12,0,0,1,.68-1.023.863.863,0,0,1,1.559.095,3.215,3.215,0,0,1,.163,2.844,17.587,17.587,0,0,1-1.05,2.286c-.156.319-.36.379-.713.168a5.8,5.8,0,0,1-2.153-2.218,5,5,0,0,1-.539-1.511,1.028,1.028,0,0,1,.708-1.141.979.979,0,0,1,1.134.319C690.019,843.115,690.092,843.171,690.166,843.234Z" transform="translate(-665.927 -828.524)" stroke="#000" stroke-width="2"/>
            <path id="Path_24" data-name="Path 24" d="M677.395,815.718a1.449,1.449,0,0,1,1.467-.716,1.277,1.277,0,0,1,1.061,1.238,4.267,4.267,0,0,1-.647,2.263c-.225.356-.5.683-.7,1.052-.239.448-.523.42-.92.231a5.586,5.586,0,0,1-2.448-2.371,3.459,3.459,0,0,1-.3-1.485.731.731,0,0,1,.688-.759A2.253,2.253,0,0,1,677.395,815.718Z" transform="translate(-657.027 -810.448)" stroke="#000" stroke-width="2"/>
            <path id="Path_25" data-name="Path 25" d="M648.435,847.019a1.387,1.387,0,0,1,1.03-1.15c.71-.188,1.261.141,1.261.875a6.092,6.092,0,0,1-.286,1.726,12.4,12.4,0,0,1-.732,1.717,2.957,2.957,0,0,1-.463.638.457.457,0,0,1-.7.045,7.184,7.184,0,0,1-2.57-3.253,1.806,1.806,0,0,1-.138-.538.991.991,0,0,1,1.555-.955A7.629,7.629,0,0,1,648.435,847.019Z" transform="translate(-637.402 -831.262)" stroke="#000" stroke-width="2"/>
          </g>
          <path id="Path_26" data-name="Path 26" d="M658.1,844.962" transform="translate(-645.682 -830.684)" fill="none" stroke="#c68080" stroke-miterlimit="10" stroke-width="1"/>
        </g>
      </g>
    </g>
    <g id="Symbol_20_1" data-name="Symbol 20 – 1" transform="translate(-1010.781 -433.951)">
      <path id="Path_1" data-name="Path 1" d="M1072.932,825.962c-.227-2.948.384-6.18.743-9.155a5.759,5.759,0,1,0-11.493-.751,61.183,61.183,0,0,0-.525,12.235c.242,3.138,4.026,5.048,6.8,4.473,3.37-.7,4.72-3.673,4.474-6.8Z" transform="translate(90.273 7.918)" fill="#8ab337"/>
      <g id="Group_1" data-name="Group 1" transform="translate(1150.781 810.951)">
        <path id="Path_2" data-name="Path 2" d="M1068.423,823.482l-.663-.044c-.189-.014-.377-.029-.567-.05-4.73-.531-6.753-4.051-6.365-11.072.418-7.695,6.533-17.431,7.232-18.514l1.122-1.757.512,2.022c1.471,5.858,3.3,17.39-1.03,28.791Zm.015-26.81c-1.9,3.292-5.5,10.223-5.807,15.745-.4,7.38,1.932,8.811,4.585,9.154C1070.613,812.1,1069.671,802.586,1068.438,796.672Z" transform="translate(-1060.781 -792.014)"/>
        <path id="Path_3" data-name="Path 3" d="M1081.018,823.252h0a7.074,7.074,0,0,1-1.856.117l-1.234-.068.439-1.155c4.151-10.917,2.389-22.045.969-27.705l-.09-.358.188-.32.806-1.812.81,1.851c.229.485,5.573,11.979,5.14,19.913C1085.861,819.557,1084.225,822.59,1081.018,823.252Zm-.5-1.744.135-.027h0c1.433-.3,3.381-1.435,3.733-7.867a33.224,33.224,0,0,0-1.818-10.77A46.036,46.036,0,0,1,1080.516,821.509Z" transform="translate(-1072.227 -791.951)"/>
      </g>
    </g>
    <g id="Symbol_18_2" data-name="Symbol 18 – 2" transform="translate(82.86 -563.829)">
      <path id="Path_4" data-name="Path 4" d="M275.449,819.1c1.218-1.427,5.25-5.464,3.27-5.2-1.827.244-4.143-2.379-3.631-3.7-1.6-.306.491,2.687-.984,1.769.256-1.427,2.081-4.857,1.76-2-.32,3.263-.16,5.161-1.121,7.608,1.475,2.142,3.976.612,5.514-.1,2.116-.816,3.015-.612,3.976-3.568.77-2.141,5.175-6.071,7.035-5.153,2.693,1.325-6.009,9.13-7.163,10.353-1.521,1.527-8.184,3.108-8.241,3.773a26.9,26.9,0,0,0,6.638-.306,12.752,12.752,0,0,0,5.13-5.1c.962-1.835,2.308-3.467,2.886-5.608.256-.917,3.239-2.272,3.88-2.578.77,2.243-4.073,5.841-4.714,7.778-.706,2.141-1.218,4.181-2.437,5.812a8.912,8.912,0,0,1-4.424,3.058c-.834.408-.514,2.2-1.156,3.02,1.859,1.121,3.657-2,5.388-3.325,1.411-1.122,1.86-2.346,2.565-4.283.833-2.141,1.86-4.18,2.5-6.423" transform="translate(36.283 137.533)" fill="none" stroke="#8ab337" stroke-miterlimit="10" stroke-width="6"/>
      <path id="Path_6" data-name="Path 6" d="M273.2,804.526c.744-1.061,1.374-2.124,2.162-3.054,2.1-2.48,4.493-4.611,7.726-5.507,4.287-1.188,7.595,1.235,7.75,5.679a14.566,14.566,0,0,1-3.342,9.394c-2.094,2.765-4.446,5.335-6.689,7.988-1.687,2-3.388,3.988-5.066,6-.558.668-.835.662-1.5.088-.82-.71-1.72-1.327-2.575-2a33.621,33.621,0,0,1-7.976-9.027c-2.129-3.5-2.549-7.5-2.264-11.531a14.391,14.391,0,0,1,.972-4.187c1-2.547,3.481-3.171,5.71-1.557a14.432,14.432,0,0,1,4.777,6.865C272.992,803.945,273.088,804.218,273.2,804.526Zm1.424,19.2c2.281-2.508,4.533-4.952,6.747-7.429a42.723,42.723,0,0,0,6.487-8.578,11.141,11.141,0,0,0,1.494-6.706c-.324-2.4-1.594-3.7-3.967-3.838a5.647,5.647,0,0,0-2.5.387c-4.416,1.942-7.627,5.031-9,9.8-.087.3-.506.751-.695.716a1.338,1.338,0,0,1-.831-.712,9.332,9.332,0,0,1-.341-1.547A13.318,13.318,0,0,0,267.361,798c-1.568-1.2-3.1-.805-3.707,1.058a15.766,15.766,0,0,0-.849,4.653c-.042,4.319.684,8.463,3.63,11.9.979,1.142,1.93,2.306,2.9,3.458A27.413,27.413,0,0,0,274.625,823.729Z" transform="translate(44.791 146.165)"/>
    </g>
  </g>
</svg>
