<svg xmlns="http://www.w3.org/2000/svg" width="1852.46" height="17.159" viewBox="0 0 1852.46 17.159">
  <g id="Group_554" data-name="Group 554" transform="translate(0 -4478.511)">
    <g id="Group_551" data-name="Group 551">
      <g id="Group_549" data-name="Group 549" transform="translate(294.704 4451.819) rotate(90)">
        <g id="Group_547" data-name="Group 547" transform="translate(26.692 -12.756)">
          <path id="Path_662" data-name="Path 662" d="M37.325,62.037c-.027-.535-.054-1.07-.078-1.6l-.1-.006c-.153-1.465-.3-2.958-.463-4.5,1.883.847,3.507,1.579,5.287,2.376.4-2.052-.859-2.657-1.8-3.424a9.8,9.8,0,0,0-1.543-.933c-2.433-1.319-2.768-3.686-.857-5.844.972-1.093,1.868-2.257,2.8-3.386l-.449-.609c-.974.23-1.95.458-3.183.747.063-4.662.128-9.287.195-14.028,2.457.589,3.86,3.065,6.712,2.787-1.033-3.731-4.758-4.331-6.848-6.646,1.265-2.622,3.937-4.4,4.444-7.361-.213-.2-.422-.393-.634-.59-1.362,1.218-2.724,2.434-4.441,3.971-.185-6.528-.363-12.807-.55-19.346,2.393.918,3.653,3.519,6.642,2.937-1.2-3.031-4.2-4.091-6.18-6.329l5.688-7.906c-.2-.156-.405-.317-.607-.477-2.855.177-3.863,2.813-5.82,4.859-.51-3.351.44-18.964,0-22.021a9.12,9.12,0,0,0-2.328,0c.017,3.414-1.235,19.454-.858,22.884a25.71,25.71,0,0,0-3.009-1.152c-.4-.1-.908.251-1.368.4.177.4.246.927.547,1.182A14.442,14.442,0,0,0,30.842-.391c1.489.832,1.914,1.7.88,3.35C30.822,4.4,29.785,6,30.48,8.31l2.028-2c.2,6.166.386,12.126.584,18.294a26.2,26.2,0,0,0-3.3-.847,4.944,4.944,0,0,0-1.767.464c.373.554.628,1.3,1.143,1.624a35.086,35.086,0,0,0,3.56,1.751l-2.274,4.072.659.513c.736-.451,1.472-.9,2.55-1.568-.081,6.783-.023,13.354-.666,20.251a41.9,41.9,0,0,0-4.215-1.727,6.055,6.055,0,0,0-2.093.157A7.4,7.4,0,0,0,28,51.027a31.042,31.042,0,0,0,3.228,1.819,36.659,36.659,0,0,0-1.893,4.109c-.2.615.2,1.427.328,2.154a9.241,9.241,0,0,0,1.573-1.188,26.62,26.62,0,0,0,1.749-2.631c.381,3.436,1.16,11.581,1.512,14.762" transform="translate(-26.692 12.756)" fill="#e4b6be"/>
          <path id="Path_663" data-name="Path 663" d="M36.69,140.681c-.111.915.736,26.437.635,27.363-.027.535-.054,1.07-.078,1.6l-.1.007c-.153,1.465-.3,2.958-.463,4.5,1.883-.847,3.507-1.579,5.287-2.376.4,2.052-.859,2.657-1.8,3.424a9.8,9.8,0,0,1-1.543.933c-2.433,1.319-2.768,3.687-.857,5.844.972,1.093,1.868,2.257,2.8,3.386l-.449.609c-.974-.23-1.95-.458-3.183-.747.063,4.662.128,9.287.195,14.028,2.457-.589,3.86-3.065,6.712-2.787C42.817,200.2,39.093,200.8,37,203.116c1.265,2.622,3.937,4.4,4.444,7.361-.213.2-.422.394-.634.589-1.362-1.216-2.724-2.433-4.441-3.97-.185,6.527-.363,12.807-.55,19.345,2.393-.918,3.653-3.519,6.642-2.937-1.2,3.031-4.2,4.091-6.18,6.33l5.688,7.905c-.2.157-.405.318-.607.477-2.855-.177-3.863-2.813-5.82-4.859-.51,3.351-.987,6.423-1.428,9.48-.964-.046-.747,6.85-1.688,6.605.389-3.219-.448-13.519-.07-16.949a25.756,25.756,0,0,1-3.009,1.152c-.4.1-.908-.251-1.368-.4.177-.4.246-.927.547-1.182a14.459,14.459,0,0,1,2.312-1.593c1.489-.832,1.914-1.7.88-3.35-.9-1.436-1.938-3.039-1.243-5.351l2.028,2c.2-6.167.386-12.126.584-18.294a26.25,26.25,0,0,1-3.3.847,4.938,4.938,0,0,1-1.767-.464c.373-.554.628-1.3,1.143-1.624a35.022,35.022,0,0,1,3.56-1.751l-2.274-4.072.659-.513c.736.451,1.472.9,2.55,1.567-.081-6.783-.023-13.354-.666-20.251a41.762,41.762,0,0,1-4.215,1.727,6.055,6.055,0,0,1-2.093-.157A7.393,7.393,0,0,1,28,179.054a30.988,30.988,0,0,1,3.228-1.82,36.655,36.655,0,0,1-1.893-4.109c-.2-.616.2-1.427.328-2.154a9.256,9.256,0,0,1,1.573,1.188,26.633,26.633,0,0,1,1.749,2.631c.381-3.436.114-42.082.466-45.264" transform="translate(-26.692 -86.848)" fill="#e4b6be"/>
        </g>
        <g id="Group_548" data-name="Group 548" transform="translate(26.692 132.481)">
          <path id="Path_664" data-name="Path 664" d="M37.325,552.461c-.027-.535-.054-1.07-.078-1.6l-.1-.006c-.153-1.464-.3-2.958-.463-4.5,1.883.847,3.507,1.58,5.287,2.376.4-2.051-.859-2.656-1.8-3.424a9.8,9.8,0,0,0-1.543-.933c-2.433-1.319-2.768-3.686-.857-5.844.972-1.093,1.868-2.258,2.8-3.386l-.449-.609c-.974.23-1.95.458-3.183.747.063-4.662.128-9.287.195-14.028,2.457.59,3.86,3.065,6.712,2.787-1.033-3.731-4.758-4.331-6.848-6.647,1.265-2.622,3.937-4.4,4.444-7.361-.213-.2-.422-.394-.634-.589-1.362,1.217-2.724,2.433-4.441,3.971-.185-6.527-.363-12.807-.55-19.345,2.393.918,3.653,3.519,6.642,2.937-1.2-3.031-4.2-4.091-6.18-6.329l5.688-7.906c-.2-.157-.405-.317-.607-.476-2.855.177-3.863,2.813-5.82,4.859-.51-3.351.166-12.656-.275-15.714a14.46,14.46,0,0,0-2.911.407c.389,3.219-.377,12.741,0,16.17a25.825,25.825,0,0,0-3.009-1.152c-.4-.1-.908.251-1.368.4.177.4.246.926.547,1.182a14.439,14.439,0,0,0,2.312,1.593c1.489.832,1.914,1.7.88,3.35-.9,1.437-1.938,3.039-1.243,5.351l2.028-2c.2,6.167.386,12.126.584,18.294a26.14,26.14,0,0,0-3.3-.847,4.937,4.937,0,0,0-1.767.463c.373.554.628,1.3,1.143,1.624a35.134,35.134,0,0,0,3.56,1.751l-2.274,4.072.659.513c.736-.451,1.472-.9,2.55-1.567-.081,6.782-.023,13.354-.666,20.251a41.693,41.693,0,0,0-4.215-1.727,6.062,6.062,0,0,0-2.093.157A7.4,7.4,0,0,0,28,541.451a30.991,30.991,0,0,0,3.228,1.82,36.606,36.606,0,0,0-1.893,4.109c-.2.615.2,1.427.328,2.153a9.222,9.222,0,0,0,1.573-1.187,26.662,26.662,0,0,0,1.749-2.631c.381,3.436,1.16,11.581,1.512,14.762" transform="translate(-26.692 -471.435)" fill="#e4b6be"/>
          <path id="Path_665" data-name="Path 665" d="M36.69,645.654c-.111.915.736,26.436.635,27.363-.027.535-.054,1.07-.078,1.6l-.1.006c-.153,1.465-.3,2.958-.463,4.5,1.883-.847,3.507-1.579,5.287-2.375.4,2.051-.859,2.656-1.8,3.424a9.807,9.807,0,0,1-1.543.933c-2.433,1.319-2.768,3.686-.857,5.844.972,1.093,1.868,2.258,2.8,3.386l-.449.609c-.974-.23-1.95-.458-3.183-.747.063,4.662.128,9.287.195,14.029,2.457-.589,3.86-3.065,6.712-2.787-1.033,3.731-4.758,4.331-6.848,6.647,1.265,2.621,3.937,4.4,4.444,7.36-.213.2-.422.394-.634.589-1.362-1.217-2.724-2.433-4.441-3.971-.185,6.527-.363,12.807-.55,19.346,2.393-.918,3.653-3.52,6.642-2.937-1.2,3.031-4.2,4.091-6.18,6.329l5.688,7.906c-.2.157-.405.317-.607.477-2.855-.177-3.863-2.813-5.82-4.859-.51,3.351-.987,6.423-1.428,9.481a14.11,14.11,0,0,1-2.866-.445c.389-3.219.731-6.47,1.108-9.9a25.653,25.653,0,0,1-3.009,1.152c-.4.1-.908-.251-1.368-.4.177-.4.246-.926.547-1.182a14.459,14.459,0,0,1,2.312-1.593c1.489-.832,1.914-1.7.88-3.35-.9-1.436-1.938-3.039-1.243-5.351l2.028,2c.2-6.166.386-12.126.584-18.293a26.191,26.191,0,0,1-3.3.847,4.944,4.944,0,0,1-1.767-.464c.373-.554.628-1.3,1.143-1.624a35.1,35.1,0,0,1,3.56-1.751l-2.274-4.072.659-.513c.736.451,1.472.9,2.55,1.567-.081-6.782-.023-13.354-.666-20.251a41.765,41.765,0,0,1-4.215,1.727,6.055,6.055,0,0,1-2.093-.157A7.407,7.407,0,0,1,28,684.026a31.035,31.035,0,0,1,3.228-1.819,36.661,36.661,0,0,1-1.893-4.109c-.2-.615.2-1.427.328-2.154a9.253,9.253,0,0,1,1.573,1.187,26.78,26.78,0,0,1,1.749,2.631c.381-3.436.114-42.081.466-45.263" transform="translate(-26.692 -585.587)" fill="#e4b6be"/>
        </g>
      </g>
      <g id="Group_550" data-name="Group 550" transform="translate(603.704 4451.819) rotate(90)">
        <g id="Group_547-2" data-name="Group 547" transform="translate(26.692 -12.756)">
          <path id="Path_662-2" data-name="Path 662" d="M37.325,62.037c-.027-.535-.054-1.07-.078-1.6l-.1-.006c-.153-1.465-.3-2.958-.463-4.5,1.883.847,3.507,1.579,5.287,2.376.4-2.052-.859-2.657-1.8-3.424a9.8,9.8,0,0,0-1.543-.933c-2.433-1.319-2.768-3.686-.857-5.844.972-1.093,1.868-2.257,2.8-3.386l-.449-.609c-.974.23-1.95.458-3.183.747.063-4.662.128-9.287.195-14.028,2.457.589,3.86,3.065,6.712,2.787-1.033-3.731-4.758-4.331-6.848-6.646,1.265-2.622,3.937-4.4,4.444-7.361-.213-.2-.422-.393-.634-.59-1.362,1.218-2.724,2.434-4.441,3.971-.185-6.528-.363-12.807-.55-19.346,2.393.918,3.653,3.519,6.642,2.937-1.2-3.031-4.2-4.091-6.18-6.329l5.688-7.906c-.2-.156-.405-.317-.607-.477-2.855.177-3.863,2.813-5.82,4.859-.51-3.351.1-17.433-.338-20.49-.964.046-1.578-2.775-2.518-2.531.156,1.294-.189,4.634-.329,8.94-.186,5.686-.225,12.893,0,14.944a25.71,25.71,0,0,0-3.009-1.152c-.4-.1-.908.251-1.368.4.177.4.246.927.547,1.182A14.442,14.442,0,0,0,30.842-.391c1.489.832,1.914,1.7.88,3.35C30.822,4.4,29.785,6,30.48,8.31l2.028-2c.2,6.166.386,12.126.584,18.294a26.2,26.2,0,0,0-3.3-.847,4.944,4.944,0,0,0-1.767.464c.373.554.628,1.3,1.143,1.624a35.086,35.086,0,0,0,3.56,1.751l-2.274,4.072.659.513c.736-.451,1.472-.9,2.55-1.568-.081,6.783-.023,13.354-.666,20.251a41.9,41.9,0,0,0-4.215-1.727,6.055,6.055,0,0,0-2.093.157A7.4,7.4,0,0,0,28,51.027a31.042,31.042,0,0,0,3.228,1.819,36.659,36.659,0,0,0-1.893,4.109c-.2.615.2,1.427.328,2.154a9.241,9.241,0,0,0,1.573-1.188,26.62,26.62,0,0,0,1.749-2.631c.381,3.436,1.16,11.581,1.512,14.762" transform="translate(-26.692 12.756)" fill="#e4b6be"/>
          <path id="Path_663-2" data-name="Path 663" d="M36.69,140.681c-.111.915.736,26.437.635,27.363-.027.535-.054,1.07-.078,1.6l-.1.007c-.153,1.465-.3,2.958-.463,4.5,1.883-.847,3.507-1.579,5.287-2.376.4,2.052-.859,2.657-1.8,3.424a9.8,9.8,0,0,1-1.543.933c-2.433,1.319-2.768,3.687-.857,5.844.972,1.093,1.868,2.257,2.8,3.386l-.449.609c-.974-.23-1.95-.458-3.183-.747.063,4.662.128,9.287.195,14.028,2.457-.589,3.86-3.065,6.712-2.787C42.817,200.2,39.093,200.8,37,203.116c1.265,2.622,3.937,4.4,4.444,7.361-.213.2-.422.394-.634.589-1.362-1.216-2.724-2.433-4.441-3.97-.185,6.527-.363,12.807-.55,19.345,2.393-.918,3.653-3.519,6.642-2.937-1.2,3.031-4.2,4.091-6.18,6.33l5.688,7.905c-.2.157-.405.318-.607.477-2.855-.177-3.863-2.813-5.82-4.859-.51,3.351-.987,6.423-1.428,9.48-.964-.046-.747,6.85-1.688,6.605.389-3.219-.448-13.519-.07-16.949a25.756,25.756,0,0,1-3.009,1.152c-.4.1-.908-.251-1.368-.4.177-.4.246-.927.547-1.182a14.459,14.459,0,0,1,2.312-1.593c1.489-.832,1.914-1.7.88-3.35-.9-1.436-1.938-3.039-1.243-5.351l2.028,2c.2-6.167.386-12.126.584-18.294a26.25,26.25,0,0,1-3.3.847,4.938,4.938,0,0,1-1.767-.464c.373-.554.628-1.3,1.143-1.624a35.022,35.022,0,0,1,3.56-1.751l-2.274-4.072.659-.513c.736.451,1.472.9,2.55,1.567-.081-6.783-.023-13.354-.666-20.251a41.762,41.762,0,0,1-4.215,1.727,6.055,6.055,0,0,1-2.093-.157A7.393,7.393,0,0,1,28,179.054a30.988,30.988,0,0,1,3.228-1.82,36.655,36.655,0,0,1-1.893-4.109c-.2-.616.2-1.427.328-2.154a9.256,9.256,0,0,1,1.573,1.188,26.633,26.633,0,0,1,1.749,2.631c.381-3.436.114-42.082.466-45.264" transform="translate(-26.692 -86.848)" fill="#e4b6be"/>
        </g>
        <g id="Group_548-2" data-name="Group 548" transform="translate(26.692 132.481)">
          <path id="Path_664-2" data-name="Path 664" d="M37.325,552.461c-.027-.535-.054-1.07-.078-1.6l-.1-.006c-.153-1.464-.3-2.958-.463-4.5,1.883.847,3.507,1.58,5.287,2.376.4-2.051-.859-2.656-1.8-3.424a9.8,9.8,0,0,0-1.543-.933c-2.433-1.319-2.768-3.686-.857-5.844.972-1.093,1.868-2.258,2.8-3.386l-.449-.609c-.974.23-1.95.458-3.183.747.063-4.662.128-9.287.195-14.028,2.457.59,3.86,3.065,6.712,2.787-1.033-3.731-4.758-4.331-6.848-6.647,1.265-2.622,3.937-4.4,4.444-7.361-.213-.2-.422-.394-.634-.589-1.362,1.217-2.724,2.433-4.441,3.971-.185-6.527-.363-12.807-.55-19.345,2.393.918,3.653,3.519,6.642,2.937-1.2-3.031-4.2-4.091-6.18-6.329l5.688-7.906c-.2-.157-.405-.317-.607-.476-2.855.177-3.863,2.813-5.82,4.859-.51-3.351.166-12.656-.275-15.714a14.46,14.46,0,0,0-2.911.407c.389,3.219-.377,12.741,0,16.17a25.825,25.825,0,0,0-3.009-1.152c-.4-.1-.908.251-1.368.4.177.4.246.926.547,1.182a14.439,14.439,0,0,0,2.312,1.593c1.489.832,1.914,1.7.88,3.35-.9,1.437-1.938,3.039-1.243,5.351l2.028-2c.2,6.167.386,12.126.584,18.294a26.14,26.14,0,0,0-3.3-.847,4.937,4.937,0,0,0-1.767.463c.373.554.628,1.3,1.143,1.624a35.134,35.134,0,0,0,3.56,1.751l-2.274,4.072.659.513c.736-.451,1.472-.9,2.55-1.567-.081,6.782-.023,13.354-.666,20.251a41.693,41.693,0,0,0-4.215-1.727,6.062,6.062,0,0,0-2.093.157A7.4,7.4,0,0,0,28,541.451a30.991,30.991,0,0,0,3.228,1.82,36.606,36.606,0,0,0-1.893,4.109c-.2.615.2,1.427.328,2.153a9.222,9.222,0,0,0,1.573-1.187,26.662,26.662,0,0,0,1.749-2.631c.381,3.436,1.16,11.581,1.512,14.762" transform="translate(-26.692 -471.435)" fill="#e4b6be"/>
          <path id="Path_665-2" data-name="Path 665" d="M36.69,645.654c-.111.915.736,26.436.635,27.363-.027.535-.054,1.07-.078,1.6l-.1.006c-.153,1.465-.3,2.958-.463,4.5,1.883-.847,3.507-1.579,5.287-2.375.4,2.051-.859,2.656-1.8,3.424a9.807,9.807,0,0,1-1.543.933c-2.433,1.319-2.768,3.686-.857,5.844.972,1.093,1.868,2.258,2.8,3.386l-.449.609c-.974-.23-1.95-.458-3.183-.747.063,4.662.128,9.287.195,14.029,2.457-.589,3.86-3.065,6.712-2.787-1.033,3.731-4.758,4.331-6.848,6.647,1.265,2.621,3.937,4.4,4.444,7.36-.213.2-.422.394-.634.589-1.362-1.217-2.724-2.433-4.441-3.971-.185,6.527-.363,12.807-.55,19.346,2.393-.918,3.653-3.52,6.642-2.937-1.2,3.031-4.2,4.091-6.18,6.329l5.688,7.906c-.2.157-.405.317-.607.477-2.855-.177-3.863-2.813-5.82-4.859-.51,3.351-.987,6.423-1.428,9.481-.964-.047-.818,10.245-1.758,10,.389-3.219-.377-16.916,0-20.345a25.653,25.653,0,0,1-3.009,1.152c-.4.1-.908-.251-1.368-.4.177-.4.246-.926.547-1.182a14.459,14.459,0,0,1,2.312-1.593c1.489-.832,1.914-1.7.88-3.35-.9-1.436-1.938-3.039-1.243-5.351l2.028,2c.2-6.166.386-12.126.584-18.293a26.191,26.191,0,0,1-3.3.847,4.944,4.944,0,0,1-1.767-.464c.373-.554.628-1.3,1.143-1.624a35.1,35.1,0,0,1,3.56-1.751l-2.274-4.072.659-.513c.736.451,1.472.9,2.55,1.567-.081-6.782-.023-13.354-.666-20.251a41.765,41.765,0,0,1-4.215,1.727,6.055,6.055,0,0,1-2.093-.157A7.407,7.407,0,0,1,28,684.026a31.035,31.035,0,0,1,3.228-1.819,36.661,36.661,0,0,1-1.893-4.109c-.2-.615.2-1.427.328-2.154a9.253,9.253,0,0,1,1.573,1.187,26.78,26.78,0,0,1,1.749,2.631c.381-3.436.114-42.081.466-45.263" transform="translate(-26.692 -585.587)" fill="#e4b6be"/>
        </g>
      </g>
    </g>
    <g id="Group_552" data-name="Group 552" transform="translate(619)">
      <g id="Group_549-2" data-name="Group 549" transform="translate(294.704 4451.819) rotate(90)">
        <g id="Group_547-3" data-name="Group 547" transform="translate(26.692 -12.756)">
          <path id="Path_662-3" data-name="Path 662" d="M37.325,62.037c-.027-.535-.054-1.07-.078-1.6l-.1-.006c-.153-1.465-.3-2.958-.463-4.5,1.883.847,3.507,1.579,5.287,2.376.4-2.052-.859-2.657-1.8-3.424a9.8,9.8,0,0,0-1.543-.933c-2.433-1.319-2.768-3.686-.857-5.844.972-1.093,1.868-2.257,2.8-3.386l-.449-.609c-.974.23-1.95.458-3.183.747.063-4.662.128-9.287.195-14.028,2.457.589,3.86,3.065,6.712,2.787-1.033-3.731-4.758-4.331-6.848-6.646,1.265-2.622,3.937-4.4,4.444-7.361-.213-.2-.422-.393-.634-.59-1.362,1.218-2.724,2.434-4.441,3.971-.185-6.528-.363-12.807-.55-19.346,2.393.918,3.653,3.519,6.642,2.937-1.2-3.031-4.2-4.091-6.18-6.329l5.688-7.906c-.2-.156-.405-.317-.607-.477-2.855.177-3.863,2.813-5.82,4.859-.51-3.351.44-18.964,0-22.021a9.12,9.12,0,0,0-2.328,0c.017,3.414-1.235,19.454-.858,22.884a25.71,25.71,0,0,0-3.009-1.152c-.4-.1-.908.251-1.368.4.177.4.246.927.547,1.182A14.442,14.442,0,0,0,30.842-.391c1.489.832,1.914,1.7.88,3.35C30.822,4.4,29.785,6,30.48,8.31l2.028-2c.2,6.166.386,12.126.584,18.294a26.2,26.2,0,0,0-3.3-.847,4.944,4.944,0,0,0-1.767.464c.373.554.628,1.3,1.143,1.624a35.086,35.086,0,0,0,3.56,1.751l-2.274,4.072.659.513c.736-.451,1.472-.9,2.55-1.568-.081,6.783-.023,13.354-.666,20.251a41.9,41.9,0,0,0-4.215-1.727,6.055,6.055,0,0,0-2.093.157A7.4,7.4,0,0,0,28,51.027a31.042,31.042,0,0,0,3.228,1.819,36.659,36.659,0,0,0-1.893,4.109c-.2.615.2,1.427.328,2.154a9.241,9.241,0,0,0,1.573-1.188,26.62,26.62,0,0,0,1.749-2.631c.381,3.436,1.16,11.581,1.512,14.762" transform="translate(-26.692 12.756)" fill="#e4b6be"/>
          <path id="Path_663-3" data-name="Path 663" d="M36.69,140.681c-.111.915.736,26.437.635,27.363-.027.535-.054,1.07-.078,1.6l-.1.007c-.153,1.465-.3,2.958-.463,4.5,1.883-.847,3.507-1.579,5.287-2.376.4,2.052-.859,2.657-1.8,3.424a9.8,9.8,0,0,1-1.543.933c-2.433,1.319-2.768,3.687-.857,5.844.972,1.093,1.868,2.257,2.8,3.386l-.449.609c-.974-.23-1.95-.458-3.183-.747.063,4.662.128,9.287.195,14.028,2.457-.589,3.86-3.065,6.712-2.787C42.817,200.2,39.093,200.8,37,203.116c1.265,2.622,3.937,4.4,4.444,7.361-.213.2-.422.394-.634.589-1.362-1.216-2.724-2.433-4.441-3.97-.185,6.527-.363,12.807-.55,19.345,2.393-.918,3.653-3.519,6.642-2.937-1.2,3.031-4.2,4.091-6.18,6.33l5.688,7.905c-.2.157-.405.318-.607.477-2.855-.177-3.863-2.813-5.82-4.859-.51,3.351-.987,6.423-1.428,9.48-.964-.046-.747,6.85-1.688,6.605.389-3.219-.448-13.519-.07-16.949a25.756,25.756,0,0,1-3.009,1.152c-.4.1-.908-.251-1.368-.4.177-.4.246-.927.547-1.182a14.459,14.459,0,0,1,2.312-1.593c1.489-.832,1.914-1.7.88-3.35-.9-1.436-1.938-3.039-1.243-5.351l2.028,2c.2-6.167.386-12.126.584-18.294a26.25,26.25,0,0,1-3.3.847,4.938,4.938,0,0,1-1.767-.464c.373-.554.628-1.3,1.143-1.624a35.022,35.022,0,0,1,3.56-1.751l-2.274-4.072.659-.513c.736.451,1.472.9,2.55,1.567-.081-6.783-.023-13.354-.666-20.251a41.762,41.762,0,0,1-4.215,1.727,6.055,6.055,0,0,1-2.093-.157A7.393,7.393,0,0,1,28,179.054a30.988,30.988,0,0,1,3.228-1.82,36.655,36.655,0,0,1-1.893-4.109c-.2-.616.2-1.427.328-2.154a9.256,9.256,0,0,1,1.573,1.188,26.633,26.633,0,0,1,1.749,2.631c.381-3.436.114-42.082.466-45.264" transform="translate(-26.692 -86.848)" fill="#e4b6be"/>
        </g>
        <g id="Group_548-3" data-name="Group 548" transform="translate(26.692 132.481)">
          <path id="Path_664-3" data-name="Path 664" d="M37.325,552.461c-.027-.535-.054-1.07-.078-1.6l-.1-.006c-.153-1.464-.3-2.958-.463-4.5,1.883.847,3.507,1.58,5.287,2.376.4-2.051-.859-2.656-1.8-3.424a9.8,9.8,0,0,0-1.543-.933c-2.433-1.319-2.768-3.686-.857-5.844.972-1.093,1.868-2.258,2.8-3.386l-.449-.609c-.974.23-1.95.458-3.183.747.063-4.662.128-9.287.195-14.028,2.457.59,3.86,3.065,6.712,2.787-1.033-3.731-4.758-4.331-6.848-6.647,1.265-2.622,3.937-4.4,4.444-7.361-.213-.2-.422-.394-.634-.589-1.362,1.217-2.724,2.433-4.441,3.971-.185-6.527-.363-12.807-.55-19.345,2.393.918,3.653,3.519,6.642,2.937-1.2-3.031-4.2-4.091-6.18-6.329l5.688-7.906c-.2-.157-.405-.317-.607-.476-2.855.177-3.863,2.813-5.82,4.859-.51-3.351.166-12.656-.275-15.714a14.46,14.46,0,0,0-2.911.407c.389,3.219-.377,12.741,0,16.17a25.825,25.825,0,0,0-3.009-1.152c-.4-.1-.908.251-1.368.4.177.4.246.926.547,1.182a14.439,14.439,0,0,0,2.312,1.593c1.489.832,1.914,1.7.88,3.35-.9,1.437-1.938,3.039-1.243,5.351l2.028-2c.2,6.167.386,12.126.584,18.294a26.14,26.14,0,0,0-3.3-.847,4.937,4.937,0,0,0-1.767.463c.373.554.628,1.3,1.143,1.624a35.134,35.134,0,0,0,3.56,1.751l-2.274,4.072.659.513c.736-.451,1.472-.9,2.55-1.567-.081,6.782-.023,13.354-.666,20.251a41.693,41.693,0,0,0-4.215-1.727,6.062,6.062,0,0,0-2.093.157A7.4,7.4,0,0,0,28,541.451a30.991,30.991,0,0,0,3.228,1.82,36.606,36.606,0,0,0-1.893,4.109c-.2.615.2,1.427.328,2.153a9.222,9.222,0,0,0,1.573-1.187,26.662,26.662,0,0,0,1.749-2.631c.381,3.436,1.16,11.581,1.512,14.762" transform="translate(-26.692 -471.435)" fill="#e4b6be"/>
          <path id="Path_665-3" data-name="Path 665" d="M36.69,645.654c-.111.915.736,26.436.635,27.363-.027.535-.054,1.07-.078,1.6l-.1.006c-.153,1.465-.3,2.958-.463,4.5,1.883-.847,3.507-1.579,5.287-2.375.4,2.051-.859,2.656-1.8,3.424a9.807,9.807,0,0,1-1.543.933c-2.433,1.319-2.768,3.686-.857,5.844.972,1.093,1.868,2.258,2.8,3.386l-.449.609c-.974-.23-1.95-.458-3.183-.747.063,4.662.128,9.287.195,14.029,2.457-.589,3.86-3.065,6.712-2.787-1.033,3.731-4.758,4.331-6.848,6.647,1.265,2.621,3.937,4.4,4.444,7.36-.213.2-.422.394-.634.589-1.362-1.217-2.724-2.433-4.441-3.971-.185,6.527-.363,12.807-.55,19.346,2.393-.918,3.653-3.52,6.642-2.937-1.2,3.031-4.2,4.091-6.18,6.329l5.688,7.906c-.2.157-.405.317-.607.477-2.855-.177-3.863-2.813-5.82-4.859-.51,3.351-.184,9.743-.624,12.8-.964-.047-1.864,3.22-2.8,2.976.389-3.219-.134-13.211.243-16.64a25.653,25.653,0,0,1-3.009,1.152c-.4.1-.908-.251-1.368-.4.177-.4.246-.926.547-1.182a14.459,14.459,0,0,1,2.312-1.593c1.489-.832,1.914-1.7.88-3.35-.9-1.436-1.938-3.039-1.243-5.351l2.028,2c.2-6.166.386-12.126.584-18.293a26.191,26.191,0,0,1-3.3.847,4.944,4.944,0,0,1-1.767-.464c.373-.554.628-1.3,1.143-1.624a35.1,35.1,0,0,1,3.56-1.751l-2.274-4.072.659-.513c.736.451,1.472.9,2.55,1.567-.081-6.782-.023-13.354-.666-20.251a41.765,41.765,0,0,1-4.215,1.727,6.055,6.055,0,0,1-2.093-.157A7.407,7.407,0,0,1,28,684.026a31.035,31.035,0,0,1,3.228-1.819,36.661,36.661,0,0,1-1.893-4.109c-.2-.615.2-1.427.328-2.154a9.253,9.253,0,0,1,1.573,1.187,26.78,26.78,0,0,1,1.749,2.631c.381-3.436.114-42.081.466-45.263" transform="translate(-26.692 -585.587)" fill="#e4b6be"/>
        </g>
      </g>
      <g id="Group_550-2" data-name="Group 550" transform="translate(603.704 4451.819) rotate(90)">
        <g id="Group_547-4" data-name="Group 547" transform="translate(26.692 -12.756)">
          <path id="Path_662-4" data-name="Path 662" d="M37.325,62.037c-.027-.535-.054-1.07-.078-1.6l-.1-.006c-.153-1.465-.3-2.958-.463-4.5,1.883.847,3.507,1.579,5.287,2.376.4-2.052-.859-2.657-1.8-3.424a9.8,9.8,0,0,0-1.543-.933c-2.433-1.319-2.768-3.686-.857-5.844.972-1.093,1.868-2.257,2.8-3.386l-.449-.609c-.974.23-1.95.458-3.183.747.063-4.662.128-9.287.195-14.028,2.457.589,3.86,3.065,6.712,2.787-1.033-3.731-4.758-4.331-6.848-6.646,1.265-2.622,3.937-4.4,4.444-7.361-.213-.2-.422-.393-.634-.59-1.362,1.218-2.724,2.434-4.441,3.971-.185-6.528-.363-12.807-.55-19.346,2.393.918,3.653,3.519,6.642,2.937-1.2-3.031-4.2-4.091-6.18-6.329l5.688-7.906c-.2-.156-.405-.317-.607-.477-2.855.177-3.863,2.813-5.82,4.859-.51-3.351.44-11.466,0-14.522a15.515,15.515,0,0,0-3.039,0c.389,3.219-.524,11.956-.147,15.386a25.71,25.71,0,0,0-3.009-1.152c-.4-.1-.908.251-1.368.4.177.4.246.927.547,1.182A14.442,14.442,0,0,0,30.842-.391c1.489.832,1.914,1.7.88,3.35C30.822,4.4,29.785,6,30.48,8.31l2.028-2c.2,6.166.386,12.126.584,18.294a26.2,26.2,0,0,0-3.3-.847,4.944,4.944,0,0,0-1.767.464c.373.554.628,1.3,1.143,1.624a35.086,35.086,0,0,0,3.56,1.751l-2.274,4.072.659.513c.736-.451,1.472-.9,2.55-1.568-.081,6.783-.023,13.354-.666,20.251a41.9,41.9,0,0,0-4.215-1.727,6.055,6.055,0,0,0-2.093.157A7.4,7.4,0,0,0,28,51.027a31.042,31.042,0,0,0,3.228,1.819,36.659,36.659,0,0,0-1.893,4.109c-.2.615.2,1.427.328,2.154a9.241,9.241,0,0,0,1.573-1.188,26.62,26.62,0,0,0,1.749-2.631c.381,3.436,1.16,11.581,1.512,14.762" transform="translate(-26.692 12.756)" fill="#e4b6be"/>
          <path id="Path_663-4" data-name="Path 663" d="M36.69,140.681c-.111.915.736,26.437.635,27.363-.027.535-.054,1.07-.078,1.6l-.1.007c-.153,1.465-.3,2.958-.463,4.5,1.883-.847,3.507-1.579,5.287-2.376.4,2.052-.859,2.657-1.8,3.424a9.8,9.8,0,0,1-1.543.933c-2.433,1.319-2.768,3.687-.857,5.844.972,1.093,1.868,2.257,2.8,3.386l-.449.609c-.974-.23-1.95-.458-3.183-.747.063,4.662.128,9.287.195,14.028,2.457-.589,3.86-3.065,6.712-2.787C42.817,200.2,39.093,200.8,37,203.116c1.265,2.622,3.937,4.4,4.444,7.361-.213.2-.422.394-.634.589-1.362-1.216-2.724-2.433-4.441-3.97-.185,6.527-.363,12.807-.55,19.345,2.393-.918,3.653-3.519,6.642-2.937-1.2,3.031-4.2,4.091-6.18,6.33l5.688,7.905c-.2.157-.405.318-.607.477-2.855-.177-3.863-2.813-5.82-4.859-.51,3.351-.987,6.423-1.428,9.48-.964-.046-.747,6.85-1.688,6.605.389-3.219-.448-13.519-.07-16.949a25.756,25.756,0,0,1-3.009,1.152c-.4.1-.908-.251-1.368-.4.177-.4.246-.927.547-1.182a14.459,14.459,0,0,1,2.312-1.593c1.489-.832,1.914-1.7.88-3.35-.9-1.436-1.938-3.039-1.243-5.351l2.028,2c.2-6.167.386-12.126.584-18.294a26.25,26.25,0,0,1-3.3.847,4.938,4.938,0,0,1-1.767-.464c.373-.554.628-1.3,1.143-1.624a35.022,35.022,0,0,1,3.56-1.751l-2.274-4.072.659-.513c.736.451,1.472.9,2.55,1.567-.081-6.783-.023-13.354-.666-20.251a41.762,41.762,0,0,1-4.215,1.727,6.055,6.055,0,0,1-2.093-.157A7.393,7.393,0,0,1,28,179.054a30.988,30.988,0,0,1,3.228-1.82,36.655,36.655,0,0,1-1.893-4.109c-.2-.616.2-1.427.328-2.154a9.256,9.256,0,0,1,1.573,1.188,26.633,26.633,0,0,1,1.749,2.631c.381-3.436.114-42.082.466-45.264" transform="translate(-26.692 -86.848)" fill="#e4b6be"/>
        </g>
        <g id="Group_548-4" data-name="Group 548" transform="translate(26.692 132.481)">
          <path id="Path_664-4" data-name="Path 664" d="M37.325,552.461c-.027-.535-.054-1.07-.078-1.6l-.1-.006c-.153-1.464-.3-2.958-.463-4.5,1.883.847,3.507,1.58,5.287,2.376.4-2.051-.859-2.656-1.8-3.424a9.8,9.8,0,0,0-1.543-.933c-2.433-1.319-2.768-3.686-.857-5.844.972-1.093,1.868-2.258,2.8-3.386l-.449-.609c-.974.23-1.95.458-3.183.747.063-4.662.128-9.287.195-14.028,2.457.59,3.86,3.065,6.712,2.787-1.033-3.731-4.758-4.331-6.848-6.647,1.265-2.622,3.937-4.4,4.444-7.361-.213-.2-.422-.394-.634-.589-1.362,1.217-2.724,2.433-4.441,3.971-.185-6.527-.363-12.807-.55-19.345,2.393.918,3.653,3.519,6.642,2.937-1.2-3.031-4.2-4.091-6.18-6.329l5.688-7.906c-.2-.157-.405-.317-.607-.476-2.855.177-3.863,2.813-5.82,4.859-.51-3.351.166-12.656-.275-15.714a14.46,14.46,0,0,0-2.911.407c.389,3.219-.377,12.741,0,16.17a25.825,25.825,0,0,0-3.009-1.152c-.4-.1-.908.251-1.368.4.177.4.246.926.547,1.182a14.439,14.439,0,0,0,2.312,1.593c1.489.832,1.914,1.7.88,3.35-.9,1.437-1.938,3.039-1.243,5.351l2.028-2c.2,6.167.386,12.126.584,18.294a26.14,26.14,0,0,0-3.3-.847,4.937,4.937,0,0,0-1.767.463c.373.554.628,1.3,1.143,1.624a35.134,35.134,0,0,0,3.56,1.751l-2.274,4.072.659.513c.736-.451,1.472-.9,2.55-1.567-.081,6.782-.023,13.354-.666,20.251a41.693,41.693,0,0,0-4.215-1.727,6.062,6.062,0,0,0-2.093.157A7.4,7.4,0,0,0,28,541.451a30.991,30.991,0,0,0,3.228,1.82,36.606,36.606,0,0,0-1.893,4.109c-.2.615.2,1.427.328,2.153a9.222,9.222,0,0,0,1.573-1.187,26.662,26.662,0,0,0,1.749-2.631c.381,3.436,1.16,11.581,1.512,14.762" transform="translate(-26.692 -471.435)" fill="#e4b6be"/>
          <path id="Path_665-4" data-name="Path 665" d="M36.69,645.654c-.111.915.736,26.436.635,27.363-.027.535-.054,1.07-.078,1.6l-.1.006c-.153,1.465-.3,2.958-.463,4.5,1.883-.847,3.507-1.579,5.287-2.375.4,2.051-.859,2.656-1.8,3.424a9.807,9.807,0,0,1-1.543.933c-2.433,1.319-2.768,3.686-.857,5.844.972,1.093,1.868,2.258,2.8,3.386l-.449.609c-.974-.23-1.95-.458-3.183-.747.063,4.662.128,9.287.195,14.029,2.457-.589,3.86-3.065,6.712-2.787-1.033,3.731-4.758,4.331-6.848,6.647,1.265,2.621,3.937,4.4,4.444,7.36-.213.2-.422.394-.634.589-1.362-1.217-2.724-2.433-4.441-3.971-.185,6.527-.363,12.807-.55,19.346,2.393-.918,3.653-3.52,6.642-2.937-1.2,3.031-4.2,4.091-6.18,6.329l5.688,7.906c-.2.157-.405.317-.607.477-2.855-.177-3.863-2.813-5.82-4.859-.51,3.351-.987,6.423-1.428,9.481-.964-.047-.818,10.245-1.758,10,.389-3.219-.377-16.916,0-20.345a25.653,25.653,0,0,1-3.009,1.152c-.4.1-.908-.251-1.368-.4.177-.4.246-.926.547-1.182a14.459,14.459,0,0,1,2.312-1.593c1.489-.832,1.914-1.7.88-3.35-.9-1.436-1.938-3.039-1.243-5.351l2.028,2c.2-6.166.386-12.126.584-18.293a26.191,26.191,0,0,1-3.3.847,4.944,4.944,0,0,1-1.767-.464c.373-.554.628-1.3,1.143-1.624a35.1,35.1,0,0,1,3.56-1.751l-2.274-4.072.659-.513c.736.451,1.472.9,2.55,1.567-.081-6.782-.023-13.354-.666-20.251a41.765,41.765,0,0,1-4.215,1.727,6.055,6.055,0,0,1-2.093-.157A7.407,7.407,0,0,1,28,684.026a31.035,31.035,0,0,1,3.228-1.819,36.661,36.661,0,0,1-1.893-4.109c-.2-.615.2-1.427.328-2.154a9.253,9.253,0,0,1,1.573,1.187,26.78,26.78,0,0,1,1.749,2.631c.381-3.436.114-42.081.466-45.263" transform="translate(-26.692 -585.587)" fill="#e4b6be"/>
        </g>
      </g>
    </g>
    <g id="Group_553" data-name="Group 553" transform="translate(1236)">
      <g id="Group_549-3" data-name="Group 549" transform="translate(294.704 4451.819) rotate(90)">
        <g id="Group_547-5" data-name="Group 547" transform="translate(26.692 -12.756)">
          <path id="Path_662-5" data-name="Path 662" d="M37.325,62.037c-.027-.535-.054-1.07-.078-1.6l-.1-.006c-.153-1.465-.3-2.958-.463-4.5,1.883.847,3.507,1.579,5.287,2.376.4-2.052-.859-2.657-1.8-3.424a9.8,9.8,0,0,0-1.543-.933c-2.433-1.319-2.768-3.686-.857-5.844.972-1.093,1.868-2.257,2.8-3.386l-.449-.609c-.974.23-1.95.458-3.183.747.063-4.662.128-9.287.195-14.028,2.457.589,3.86,3.065,6.712,2.787-1.033-3.731-4.758-4.331-6.848-6.646,1.265-2.622,3.937-4.4,4.444-7.361-.213-.2-.422-.393-.634-.59-1.362,1.218-2.724,2.434-4.441,3.971-.185-6.528-.363-12.807-.55-19.346,2.393.918,3.653,3.519,6.642,2.937-1.2-3.031-4.2-4.091-6.18-6.329l5.688-7.906c-.2-.156-.405-.317-.607-.477-2.855.177-3.863,2.813-5.82,4.859-.51-3.351.44-18.964,0-22.021a9.12,9.12,0,0,0-2.328,0c.017,3.414-1.235,19.454-.858,22.884a25.71,25.71,0,0,0-3.009-1.152c-.4-.1-.908.251-1.368.4.177.4.246.927.547,1.182A14.442,14.442,0,0,0,30.842-.391c1.489.832,1.914,1.7.88,3.35C30.822,4.4,29.785,6,30.48,8.31l2.028-2c.2,6.166.386,12.126.584,18.294a26.2,26.2,0,0,0-3.3-.847,4.944,4.944,0,0,0-1.767.464c.373.554.628,1.3,1.143,1.624a35.086,35.086,0,0,0,3.56,1.751l-2.274,4.072.659.513c.736-.451,1.472-.9,2.55-1.568-.081,6.783-.023,13.354-.666,20.251a41.9,41.9,0,0,0-4.215-1.727,6.055,6.055,0,0,0-2.093.157A7.4,7.4,0,0,0,28,51.027a31.042,31.042,0,0,0,3.228,1.819,36.659,36.659,0,0,0-1.893,4.109c-.2.615.2,1.427.328,2.154a9.241,9.241,0,0,0,1.573-1.188,26.62,26.62,0,0,0,1.749-2.631c.381,3.436,1.16,11.581,1.512,14.762" transform="translate(-26.692 12.756)" fill="#e4b6be"/>
          <path id="Path_663-5" data-name="Path 663" d="M36.69,140.681c-.111.915.736,26.437.635,27.363-.027.535-.054,1.07-.078,1.6l-.1.007c-.153,1.465-.3,2.958-.463,4.5,1.883-.847,3.507-1.579,5.287-2.376.4,2.052-.859,2.657-1.8,3.424a9.8,9.8,0,0,1-1.543.933c-2.433,1.319-2.768,3.687-.857,5.844.972,1.093,1.868,2.257,2.8,3.386l-.449.609c-.974-.23-1.95-.458-3.183-.747.063,4.662.128,9.287.195,14.028,2.457-.589,3.86-3.065,6.712-2.787C42.817,200.2,39.093,200.8,37,203.116c1.265,2.622,3.937,4.4,4.444,7.361-.213.2-.422.394-.634.589-1.362-1.216-2.724-2.433-4.441-3.97-.185,6.527-.363,12.807-.55,19.345,2.393-.918,3.653-3.519,6.642-2.937-1.2,3.031-4.2,4.091-6.18,6.33l5.688,7.905c-.2.157-.405.318-.607.477-2.855-.177-3.863-2.813-5.82-4.859-.51,3.351-.987,6.423-1.428,9.48-.964-.046-.747,6.85-1.688,6.605.389-3.219-.448-13.519-.07-16.949a25.756,25.756,0,0,1-3.009,1.152c-.4.1-.908-.251-1.368-.4.177-.4.246-.927.547-1.182a14.459,14.459,0,0,1,2.312-1.593c1.489-.832,1.914-1.7.88-3.35-.9-1.436-1.938-3.039-1.243-5.351l2.028,2c.2-6.167.386-12.126.584-18.294a26.25,26.25,0,0,1-3.3.847,4.938,4.938,0,0,1-1.767-.464c.373-.554.628-1.3,1.143-1.624a35.022,35.022,0,0,1,3.56-1.751l-2.274-4.072.659-.513c.736.451,1.472.9,2.55,1.567-.081-6.783-.023-13.354-.666-20.251a41.762,41.762,0,0,1-4.215,1.727,6.055,6.055,0,0,1-2.093-.157A7.393,7.393,0,0,1,28,179.054a30.988,30.988,0,0,1,3.228-1.82,36.655,36.655,0,0,1-1.893-4.109c-.2-.616.2-1.427.328-2.154a9.256,9.256,0,0,1,1.573,1.188,26.633,26.633,0,0,1,1.749,2.631c.381-3.436.114-42.082.466-45.264" transform="translate(-26.692 -86.848)" fill="#e4b6be"/>
        </g>
        <g id="Group_548-5" data-name="Group 548" transform="translate(26.692 132.481)">
          <path id="Path_664-5" data-name="Path 664" d="M37.325,552.461c-.027-.535-.054-1.07-.078-1.6l-.1-.006c-.153-1.464-.3-2.958-.463-4.5,1.883.847,3.507,1.58,5.287,2.376.4-2.051-.859-2.656-1.8-3.424a9.8,9.8,0,0,0-1.543-.933c-2.433-1.319-2.768-3.686-.857-5.844.972-1.093,1.868-2.258,2.8-3.386l-.449-.609c-.974.23-1.95.458-3.183.747.063-4.662.128-9.287.195-14.028,2.457.59,3.86,3.065,6.712,2.787-1.033-3.731-4.758-4.331-6.848-6.647,1.265-2.622,3.937-4.4,4.444-7.361-.213-.2-.422-.394-.634-.589-1.362,1.217-2.724,2.433-4.441,3.971-.185-6.527-.363-12.807-.55-19.345,2.393.918,3.653,3.519,6.642,2.937-1.2-3.031-4.2-4.091-6.18-6.329l5.688-7.906c-.2-.157-.405-.317-.607-.476-2.855.177-3.863,2.813-5.82,4.859-.51-3.351.166-12.656-.275-15.714a14.46,14.46,0,0,0-2.911.407c.389,3.219-.377,12.741,0,16.17a25.825,25.825,0,0,0-3.009-1.152c-.4-.1-.908.251-1.368.4.177.4.246.926.547,1.182a14.439,14.439,0,0,0,2.312,1.593c1.489.832,1.914,1.7.88,3.35-.9,1.437-1.938,3.039-1.243,5.351l2.028-2c.2,6.167.386,12.126.584,18.294a26.14,26.14,0,0,0-3.3-.847,4.937,4.937,0,0,0-1.767.463c.373.554.628,1.3,1.143,1.624a35.134,35.134,0,0,0,3.56,1.751l-2.274,4.072.659.513c.736-.451,1.472-.9,2.55-1.567-.081,6.782-.023,13.354-.666,20.251a41.693,41.693,0,0,0-4.215-1.727,6.062,6.062,0,0,0-2.093.157A7.4,7.4,0,0,0,28,541.451a30.991,30.991,0,0,0,3.228,1.82,36.606,36.606,0,0,0-1.893,4.109c-.2.615.2,1.427.328,2.153a9.222,9.222,0,0,0,1.573-1.187,26.662,26.662,0,0,0,1.749-2.631c.381,3.436,1.16,11.581,1.512,14.762" transform="translate(-26.692 -471.435)" fill="#e4b6be"/>
          <path id="Path_665-5" data-name="Path 665" d="M36.69,645.654c-.111.915.736,26.436.635,27.363-.027.535-.054,1.07-.078,1.6l-.1.006c-.153,1.465-.3,2.958-.463,4.5,1.883-.847,3.507-1.579,5.287-2.375.4,2.051-.859,2.656-1.8,3.424a9.807,9.807,0,0,1-1.543.933c-2.433,1.319-2.768,3.686-.857,5.844.972,1.093,1.868,2.258,2.8,3.386l-.449.609c-.974-.23-1.95-.458-3.183-.747.063,4.662.128,9.287.195,14.029,2.457-.589,3.86-3.065,6.712-2.787-1.033,3.731-4.758,4.331-6.848,6.647,1.265,2.621,3.937,4.4,4.444,7.36-.213.2-.422.394-.634.589-1.362-1.217-2.724-2.433-4.441-3.971-.185,6.527-.363,12.807-.55,19.346,2.393-.918,3.653-3.52,6.642-2.937-1.2,3.031-4.2,4.091-6.18,6.329l5.688,7.906c-.2.157-.405.317-.607.477-2.855-.177-3.863-2.813-5.82-4.859-.51,3.351.44,6.224,0,9.282-.964-.047-2.1,7.416-3.039,7.172.389-3.219-.524-13.887-.147-17.317a25.653,25.653,0,0,1-3.009,1.152c-.4.1-.908-.251-1.368-.4.177-.4.246-.926.547-1.182a14.459,14.459,0,0,1,2.312-1.593c1.489-.832,1.914-1.7.88-3.35-.9-1.436-1.938-3.039-1.243-5.351l2.028,2c.2-6.166.386-12.126.584-18.293a26.191,26.191,0,0,1-3.3.847,4.944,4.944,0,0,1-1.767-.464c.373-.554.628-1.3,1.143-1.624a35.1,35.1,0,0,1,3.56-1.751l-2.274-4.072.659-.513c.736.451,1.472.9,2.55,1.567-.081-6.782-.023-13.354-.666-20.251a41.765,41.765,0,0,1-4.215,1.727,6.055,6.055,0,0,1-2.093-.157A7.407,7.407,0,0,1,28,684.026a31.035,31.035,0,0,1,3.228-1.819,36.661,36.661,0,0,1-1.893-4.109c-.2-.615.2-1.427.328-2.154a9.253,9.253,0,0,1,1.573,1.187,26.78,26.78,0,0,1,1.749,2.631c.381-3.436.114-42.081.466-45.263" transform="translate(-26.692 -585.587)" fill="#e4b6be"/>
        </g>
      </g>
      <g id="Group_550-3" data-name="Group 550" transform="translate(603.704 4451.819) rotate(90)">
        <g id="Group_547-6" data-name="Group 547" transform="translate(26.692 -12.756)">
          <path id="Path_662-6" data-name="Path 662" d="M37.325,62.037c-.027-.535-.054-1.07-.078-1.6l-.1-.006c-.153-1.465-.3-2.958-.463-4.5,1.883.847,3.507,1.579,5.287,2.376.4-2.052-.859-2.657-1.8-3.424a9.8,9.8,0,0,0-1.543-.933c-2.433-1.319-2.768-3.686-.857-5.844.972-1.093,1.868-2.257,2.8-3.386l-.449-.609c-.974.23-1.95.458-3.183.747.063-4.662.128-9.287.195-14.028,2.457.589,3.86,3.065,6.712,2.787-1.033-3.731-4.758-4.331-6.848-6.646,1.265-2.622,3.937-4.4,4.444-7.361-.213-.2-.422-.393-.634-.59-1.362,1.218-2.724,2.434-4.441,3.971-.185-6.528-.363-12.807-.55-19.346,2.393.918,3.653,3.519,6.642,2.937-1.2-3.031-4.2-4.091-6.18-6.329l5.688-7.906c-.2-.156-.405-.317-.607-.477-2.855.177-3.863,2.813-5.82,4.859-.51-3.351-.987-6.424-1.428-9.481a14.045,14.045,0,0,0-2.866.445c.389,3.219.731,6.469,1.108,9.9a25.71,25.71,0,0,0-3.009-1.152c-.4-.1-.908.251-1.368.4.177.4.246.927.547,1.182A14.442,14.442,0,0,0,30.842-.391c1.489.832,1.914,1.7.88,3.35C30.822,4.4,29.785,6,30.48,8.31l2.028-2c.2,6.166.386,12.126.584,18.294a26.2,26.2,0,0,0-3.3-.847,4.944,4.944,0,0,0-1.767.464c.373.554.628,1.3,1.143,1.624a35.086,35.086,0,0,0,3.56,1.751l-2.274,4.072.659.513c.736-.451,1.472-.9,2.55-1.568-.081,6.783-.023,13.354-.666,20.251a41.9,41.9,0,0,0-4.215-1.727,6.055,6.055,0,0,0-2.093.157A7.4,7.4,0,0,0,28,51.027a31.042,31.042,0,0,0,3.228,1.819,36.659,36.659,0,0,0-1.893,4.109c-.2.615.2,1.427.328,2.154a9.241,9.241,0,0,0,1.573-1.188,26.62,26.62,0,0,0,1.749-2.631c.381,3.436,1.16,11.581,1.512,14.762" transform="translate(-26.692 12.756)" fill="#e4b6be"/>
          <path id="Path_663-6" data-name="Path 663" d="M36.69,140.681c-.111.915.736,26.437.635,27.363-.027.535-.054,1.07-.078,1.6l-.1.007c-.153,1.465-.3,2.958-.463,4.5,1.883-.847,3.507-1.579,5.287-2.376.4,2.052-.859,2.657-1.8,3.424a9.8,9.8,0,0,1-1.543.933c-2.433,1.319-2.768,3.687-.857,5.844.972,1.093,1.868,2.257,2.8,3.386l-.449.609c-.974-.23-1.95-.458-3.183-.747.063,4.662.128,9.287.195,14.028,2.457-.589,3.86-3.065,6.712-2.787C42.817,200.2,39.093,200.8,37,203.116c1.265,2.622,3.937,4.4,4.444,7.361-.213.2-.422.394-.634.589-1.362-1.216-2.724-2.433-4.441-3.97-.185,6.527-.363,12.807-.55,19.345,2.393-.918,3.653-3.519,6.642-2.937-1.2,3.031-4.2,4.091-6.18,6.33l5.688,7.905c-.2.157-.405.318-.607.477-2.855-.177-3.863-2.813-5.82-4.859-.51,3.351-.987,6.423-1.428,9.48-.964-.046-.747,6.85-1.688,6.605.389-3.219-.448-13.519-.07-16.949a25.756,25.756,0,0,1-3.009,1.152c-.4.1-.908-.251-1.368-.4.177-.4.246-.927.547-1.182a14.459,14.459,0,0,1,2.312-1.593c1.489-.832,1.914-1.7.88-3.35-.9-1.436-1.938-3.039-1.243-5.351l2.028,2c.2-6.167.386-12.126.584-18.294a26.25,26.25,0,0,1-3.3.847,4.938,4.938,0,0,1-1.767-.464c.373-.554.628-1.3,1.143-1.624a35.022,35.022,0,0,1,3.56-1.751l-2.274-4.072.659-.513c.736.451,1.472.9,2.55,1.567-.081-6.783-.023-13.354-.666-20.251a41.762,41.762,0,0,1-4.215,1.727,6.055,6.055,0,0,1-2.093-.157A7.393,7.393,0,0,1,28,179.054a30.988,30.988,0,0,1,3.228-1.82,36.655,36.655,0,0,1-1.893-4.109c-.2-.616.2-1.427.328-2.154a9.256,9.256,0,0,1,1.573,1.188,26.633,26.633,0,0,1,1.749,2.631c.381-3.436.114-42.082.466-45.264" transform="translate(-26.692 -86.848)" fill="#e4b6be"/>
        </g>
        <g id="Group_548-6" data-name="Group 548" transform="translate(26.692 132.481)">
          <path id="Path_664-6" data-name="Path 664" d="M37.325,552.461c-.027-.535-.054-1.07-.078-1.6l-.1-.006c-.153-1.464-.3-2.958-.463-4.5,1.883.847,3.507,1.58,5.287,2.376.4-2.051-.859-2.656-1.8-3.424a9.8,9.8,0,0,0-1.543-.933c-2.433-1.319-2.768-3.686-.857-5.844.972-1.093,1.868-2.258,2.8-3.386l-.449-.609c-.974.23-1.95.458-3.183.747.063-4.662.128-9.287.195-14.028,2.457.59,3.86,3.065,6.712,2.787-1.033-3.731-4.758-4.331-6.848-6.647,1.265-2.622,3.937-4.4,4.444-7.361-.213-.2-.422-.394-.634-.589-1.362,1.217-2.724,2.433-4.441,3.971-.185-6.527-.363-12.807-.55-19.345,2.393.918,3.653,3.519,6.642,2.937-1.2-3.031-4.2-4.091-6.18-6.329l5.688-7.906c-.2-.157-.405-.317-.607-.476-2.855.177-3.863,2.813-5.82,4.859-.51-3.351.166-12.656-.275-15.714a14.46,14.46,0,0,0-2.911.407c.389,3.219-.377,12.741,0,16.17a25.825,25.825,0,0,0-3.009-1.152c-.4-.1-.908.251-1.368.4.177.4.246.926.547,1.182a14.439,14.439,0,0,0,2.312,1.593c1.489.832,1.914,1.7.88,3.35-.9,1.437-1.938,3.039-1.243,5.351l2.028-2c.2,6.167.386,12.126.584,18.294a26.14,26.14,0,0,0-3.3-.847,4.937,4.937,0,0,0-1.767.463c.373.554.628,1.3,1.143,1.624a35.134,35.134,0,0,0,3.56,1.751l-2.274,4.072.659.513c.736-.451,1.472-.9,2.55-1.567-.081,6.782-.023,13.354-.666,20.251a41.693,41.693,0,0,0-4.215-1.727,6.062,6.062,0,0,0-2.093.157A7.4,7.4,0,0,0,28,541.451a30.991,30.991,0,0,0,3.228,1.82,36.606,36.606,0,0,0-1.893,4.109c-.2.615.2,1.427.328,2.153a9.222,9.222,0,0,0,1.573-1.187,26.662,26.662,0,0,0,1.749-2.631c.381,3.436,1.16,11.581,1.512,14.762" transform="translate(-26.692 -471.435)" fill="#e4b6be"/>
          <path id="Path_665-6" data-name="Path 665" d="M36.69,645.654c-.111.915.736,26.436.635,27.363-.027.535-.054,1.07-.078,1.6l-.1.006c-.153,1.465-.3,2.958-.463,4.5,1.883-.847,3.507-1.579,5.287-2.375.4,2.051-.859,2.656-1.8,3.424a9.807,9.807,0,0,1-1.543.933c-2.433,1.319-2.768,3.686-.857,5.844.972,1.093,1.868,2.258,2.8,3.386l-.449.609c-.974-.23-1.95-.458-3.183-.747.063,4.662.128,9.287.195,14.029,2.457-.589,3.86-3.065,6.712-2.787-1.033,3.731-4.758,4.331-6.848,6.647,1.265,2.621,3.937,4.4,4.444,7.36-.213.2-.422.394-.634.589-1.362-1.217-2.724-2.433-4.441-3.971-.185,6.527-.363,12.807-.55,19.346,2.393-.918,3.653-3.52,6.642-2.937-1.2,3.031-4.2,4.091-6.18,6.329l5.688,7.906c-.2.157-.405.317-.607.477-2.855-.177-3.863-2.813-5.82-4.859-.51,3.351-.987,6.423-1.428,9.481-.964-.047-.818,10.245-1.758,10,.389-3.219-.377-16.916,0-20.345a25.653,25.653,0,0,1-3.009,1.152c-.4.1-.908-.251-1.368-.4.177-.4.246-.926.547-1.182a14.459,14.459,0,0,1,2.312-1.593c1.489-.832,1.914-1.7.88-3.35-.9-1.436-1.938-3.039-1.243-5.351l2.028,2c.2-6.166.386-12.126.584-18.293a26.191,26.191,0,0,1-3.3.847,4.944,4.944,0,0,1-1.767-.464c.373-.554.628-1.3,1.143-1.624a35.1,35.1,0,0,1,3.56-1.751l-2.274-4.072.659-.513c.736.451,1.472.9,2.55,1.567-.081-6.782-.023-13.354-.666-20.251a41.765,41.765,0,0,1-4.215,1.727,6.055,6.055,0,0,1-2.093-.157A7.407,7.407,0,0,1,28,684.026a31.035,31.035,0,0,1,3.228-1.819,36.661,36.661,0,0,1-1.893-4.109c-.2-.615.2-1.427.328-2.154a9.253,9.253,0,0,1,1.573,1.187,26.78,26.78,0,0,1,1.749,2.631c.381-3.436.114-42.081.466-45.263" transform="translate(-26.692 -585.587)" fill="#e4b6be"/>
        </g>
      </g>
    </g>
  </g>
</svg>
