<svg xmlns="http://www.w3.org/2000/svg" width="50.387" height="54.273" viewBox="0 0 50.387 54.273">
  <g id="Symbol_21_2" data-name="Symbol 21 – 2" transform="translate(-238 -371)">
    <g id="Group_520" data-name="Group 520">
      <path id="Path_7" data-name="Path 7" d="M209.415,323.332a26.188,26.188,0,0,1,2.973-.271l-1.185-1.184c.1,1.489-1.567,2.661-2.186,3.944-.658,1.362,1.341,2.561,2.047,1.2.619-1.2,1.026-2.477,1.527-3.729l-2.326-.315c.107,2.455-2.231,4.522-3.089,6.732l2.327.315a24.573,24.573,0,0,1,1.053-7.358l-1.98.523c1.307,1.676,1.026,4.587.953,6.567-.067,1.81-.311,4.454-.5,5.822-.29,2.063-1.429,6.088.178,7.829.878.953,2.033.476,2.857-.257,1.3-1.151,1.034-3.007.8-4.537-.7-4.5-3.461-9.656-1.674-14.226l-1.457.828c.911.281,1.061,2.247,1.152,3a31.594,31.594,0,0,1,.061,5.456,36.011,36.011,0,0,1-1.1,8.408l1.979-.522c-1.459-1.812-1.471-5.074-1.551-7.262a17.627,17.627,0,0,1,1.11-7.97h-2.046a6.524,6.524,0,0,1,.508,4.76c-.27,1.493,2.015,2.149,2.284.647.381-2.125.589-4.694-.747-6.54a1.2,1.2,0,0,0-2.046,0c-1.433,2.707-1.5,6.146-1.433,9.133.063,2.931.332,6.527,2.245,8.9a1.194,1.194,0,0,0,1.98-.523,41.289,41.289,0,0,0,1.24-10.261c.1-2.765.437-8.452-3.006-9.514a1.2,1.2,0,0,0-1.457.828c-1.36,3.475-.287,8.012.7,11.491a19.482,19.482,0,0,1,1.088,5.591.722.722,0,0,1-.3.635c-.4.414.635.444.59.3a5.917,5.917,0,0,1-.072-1.866c.092-2.371.54-4.757.773-7.119.349-3.565.936-8.246-1.427-11.271a1.192,1.192,0,0,0-1.979.523,26.845,26.845,0,0,0-1.138,7.987,1.19,1.19,0,0,0,2.326.315c1-2.564,3.3-4.414,3.174-7.361a1.191,1.191,0,0,0-2.327-.314c-.425,1.059-.764,2.145-1.29,3.163.683.4,1.364.8,2.047,1.2.861-1.788,2.651-2.97,2.509-5.139a1.2,1.2,0,0,0-1.184-1.185,31.9,31.9,0,0,0-3.6.356c-1.507.213-.863,2.5.631,2.284Z" transform="translate(35.37 81.211)" fill="#8ab337"/>
      <path id="Path_8" data-name="Path 8" d="M272.062,323.332a26.168,26.168,0,0,1,2.973-.271l-1.184-1.184c.1,1.489-1.567,2.661-2.187,3.944-.659,1.362,1.34,2.56,2.044,1.2.622-1.2,1.029-2.477,1.531-3.729l-2.327-.315c.105,2.455-2.231,4.522-3.089,6.732l2.326.315a24.615,24.615,0,0,1,1.053-7.358l-1.979.523c1.309,1.676,1.026,4.587.952,6.567-.066,1.81-.311,4.454-.5,5.822-.289,2.063-1.428,6.088.178,7.829.879.953,2.033.476,2.859-.257,1.3-1.151,1.033-3.007.795-4.537-.7-4.5-3.46-9.654-1.673-14.226l-1.458.828c.911.281,1.062,2.246,1.153,3a31.492,31.492,0,0,1,.061,5.456,36.068,36.068,0,0,1-1.1,8.408l1.979-.522c-1.461-1.812-1.472-5.074-1.552-7.262a17.611,17.611,0,0,1,1.11-7.97h-2.046a6.541,6.541,0,0,1,.508,4.76c-.267,1.493,2.016,2.15,2.284.647.38-2.125.589-4.693-.746-6.54a1.2,1.2,0,0,0-2.046,0c-1.431,2.707-1.5,6.146-1.433,9.133.062,2.931.331,6.528,2.244,8.9a1.194,1.194,0,0,0,1.98-.523,41.184,41.184,0,0,0,1.239-10.261c.1-2.765.437-8.453-3.007-9.514a1.2,1.2,0,0,0-1.456.828c-1.358,3.477-.288,8.012.7,11.491a19.417,19.417,0,0,1,1.089,5.591.723.723,0,0,1-.3.635c-.4.414.634.444.59.3a5.975,5.975,0,0,1-.073-1.866c.093-2.371.539-4.757.772-7.119.35-3.565.937-8.246-1.426-11.271a1.192,1.192,0,0,0-1.979.523,26.853,26.853,0,0,0-1.138,7.987,1.19,1.19,0,0,0,2.327.315c1-2.564,3.3-4.415,3.174-7.361a1.191,1.191,0,0,0-2.327-.314c-.425,1.059-.765,2.145-1.29,3.163l2.044,1.2c.864-1.788,2.653-2.969,2.512-5.139a1.2,1.2,0,0,0-1.185-1.185,31.871,31.871,0,0,0-3.6.356c-1.507.213-.864,2.5.63,2.284Z" transform="translate(-7.08 81.211)" fill="#c68080"/>
      <path id="Path_9" data-name="Path 9" d="M318.686,323.332a26.192,26.192,0,0,1,2.972-.271l-1.184-1.184c.1,1.489-1.566,2.662-2.187,3.944-.658,1.362,1.34,2.56,2.047,1.2.622-1.2,1.028-2.476,1.528-3.729l-2.327-.315c.108,2.455-2.229,4.522-3.088,6.732l2.326.315a24.564,24.564,0,0,1,1.053-7.358l-1.98.523c1.309,1.676,1.026,4.587.953,6.567-.066,1.81-.312,4.454-.5,5.822-.29,2.063-1.428,6.088.178,7.829.879.953,2.033.476,2.858-.257,1.3-1.151,1.034-3.007.8-4.537-.7-4.505-3.459-9.652-1.674-14.226l-1.458.828c.912.281,1.062,2.246,1.153,3a31.465,31.465,0,0,1,.061,5.456,35.925,35.925,0,0,1-1.1,8.408l1.98-.522c-1.461-1.812-1.472-5.074-1.552-7.262a17.62,17.62,0,0,1,1.111-7.97H318.6a6.531,6.531,0,0,1,.507,4.76c-.266,1.493,2.017,2.149,2.285.647.379-2.125.588-4.693-.746-6.54a1.2,1.2,0,0,0-2.046,0c-1.432,2.706-1.5,6.146-1.434,9.133.062,2.931.332,6.528,2.245,8.9a1.2,1.2,0,0,0,1.98-.523,41.306,41.306,0,0,0,1.24-10.261c.1-2.765.436-8.453-3.008-9.514a1.205,1.205,0,0,0-1.458.828c-1.357,3.477-.286,8.012.7,11.491a19.46,19.46,0,0,1,1.09,5.591.728.728,0,0,1-.3.635c-.4.414.636.444.591.3a5.852,5.852,0,0,1-.073-1.866c.092-2.371.54-4.757.772-7.119.351-3.565.937-8.246-1.426-11.271a1.192,1.192,0,0,0-1.979.523,26.839,26.839,0,0,0-1.138,7.987,1.19,1.19,0,0,0,2.327.315c1-2.564,3.3-4.414,3.173-7.361a1.191,1.191,0,0,0-2.327-.314c-.424,1.059-.764,2.145-1.291,3.163l2.047,1.2c.864-1.787,2.653-2.97,2.509-5.139a1.2,1.2,0,0,0-1.184-1.185,31.836,31.836,0,0,0-3.6.356c-1.508.213-.864,2.5.63,2.284Z" transform="translate(-38.673 81.211)" fill="#8ab337"/>
      <g id="Group_9" data-name="Group 9" transform="translate(238 371)">
        <g id="Group_6" data-name="Group 6" transform="translate(0 0.568)">
          <path id="Path_10" data-name="Path 10" d="M214.46,341.723h-2.006a1.7,1.7,0,0,1-1.7-1.7V318.94a1.7,1.7,0,0,1,1.7-1.7h2.006a1.7,1.7,0,0,1,1.7,1.7v21.08A1.7,1.7,0,0,1,214.46,341.723Zm-2.006-23.693a.911.911,0,0,0-.911.91v21.08a.913.913,0,0,0,.911.913h2.006a.913.913,0,0,0,.91-.913V318.94a.911.911,0,0,0-.91-.91Z" transform="translate(-205.098 -288.018)"/>
          <path id="Path_11" data-name="Path 11" d="M213.616,317.174h-6.272a.983.983,0,0,1,0-1.965h6.272a.983.983,0,1,1,0,1.965ZM207.345,316a.193.193,0,1,0,0,.385h6.272a.193.193,0,1,0,0-.385Z" transform="translate(-202.122 -286.642)"/>
          <path id="Path_12" data-name="Path 12" d="M203.858,255.956h-4.968l-.023-.37a2.078,2.078,0,0,0-1.788-1.763,5.208,5.208,0,0,1-3.809-4.438c-.13-1.631-.006-18.336,0-19.047a4.17,4.17,0,0,1,1.249-2.857l.187-.173.235.1c.315.133,1.4,1.05,2.155,7.242.778,6.384,1.141,12.335,1.145,12.394.031.416.235,1.24.563,1.24.647-.031.685-.033.685-1.216,0-1.38.25-16.257.253-16.406a6.656,6.656,0,0,1,1.335-3.713l.3-.35.3.35a6.681,6.681,0,0,1,1.335,3.707c0,.156.248,15.032.248,16.412,0,1.183.038,1.185.669,1.215h0c.346,0,.549-.823.58-1.244,0-.055.368-6.005,1.146-12.39.752-6.191,1.839-7.107,2.153-7.241l.235-.1.188.173a4.165,4.165,0,0,1,1.249,2.863c0,.7.128,17.409,0,19.041a5.207,5.207,0,0,1-3.808,4.438,2.077,2.077,0,0,0-1.787,1.762Zm-4.264-.79h3.56a2.933,2.933,0,0,1,2.351-2.115,4.371,4.371,0,0,0,3.186-3.729c.126-1.6,0-18.8,0-18.977a3.517,3.517,0,0,0-.723-1.994c-.326.511-1,2.044-1.528,6.393-.774,6.361-1.137,12.289-1.14,12.348-.016.208-.18,1.982-1.354,1.982h-.052c-1.216-.059-1.42-.552-1.42-2,0-1.374-.246-16.243-.248-16.394a6.384,6.384,0,0,0-.848-2.807,6.356,6.356,0,0,0-.846,2.814c0,.143-.25,15.012-.25,16.387,0,1.453-.206,1.946-1.423,2H198.8c-1.174,0-1.336-1.775-1.35-1.978,0-.063-.367-5.991-1.141-12.352-.528-4.351-1.2-5.883-1.528-6.393a3.474,3.474,0,0,0-.724,1.989c0,.178-.13,17.385,0,18.982a4.367,4.367,0,0,0,3.186,3.729A2.936,2.936,0,0,1,199.593,255.165Z" transform="translate(-193.209 -226.598)"/>
        </g>
        <g id="Group_7" data-name="Group 7" transform="translate(19.581 0)">
          <path id="Path_13" data-name="Path 13" d="M275.049,341.723h-2a1.7,1.7,0,0,1-1.7-1.7V318.94a1.7,1.7,0,0,1,1.7-1.7h2a1.7,1.7,0,0,1,1.7,1.7v21.08A1.7,1.7,0,0,1,275.049,341.723Zm-2-23.693a.913.913,0,0,0-.912.91v21.08a.914.914,0,0,0,.912.913h2a.913.913,0,0,0,.911-.913V318.94a.911.911,0,0,0-.911-.91Z" transform="translate(-265.736 -287.45)"/>
          <path id="Path_14" data-name="Path 14" d="M274.2,317.174h-6.271a.983.983,0,1,1,0-1.965H274.2a.983.983,0,1,1,0,1.965ZM267.933,316a.193.193,0,1,0,0,.385H274.2a.193.193,0,1,0,0-.385Z" transform="translate(-262.758 -286.073)"/>
          <path id="Path_15" data-name="Path 15" d="M264.6,254.761l-4.717-.005-4.83-.84h-.032c-1.073,0-1.073-2.466-1.073-3.276V239.666c0-.091-.085-9.884,8.11-14.712l.2-.119.2.119c8.2,4.828,8.112,14.621,8.11,14.719v10.968a7.778,7.778,0,0,1-.31,2.593c-.233.594-.579.683-.763.683h-.031Zm-4.615-.79h4.548l4.9-.852c.084-.114.343-.613.343-2.478V239.666c0-.1.067-9.28-7.521-13.912-7.588,4.632-7.522,13.812-7.521,13.9v10.982c0,1.865.257,2.364.343,2.478l.047.008Z" transform="translate(-253.948 -224.835)"/>
        </g>
        <g id="Group_8" data-name="Group 8" transform="translate(35.414 3.866)">
          <path id="Path_16" data-name="Path 16" d="M321.6,341.723h-2a1.7,1.7,0,0,1-1.7-1.7V318.94a1.7,1.7,0,0,1,1.7-1.7h2a1.7,1.7,0,0,1,1.7,1.7v21.08A1.7,1.7,0,0,1,321.6,341.723Zm-2-23.693a.911.911,0,0,0-.91.91v21.08a.912.912,0,0,0,.91.913h2a.913.913,0,0,0,.911-.913V318.94a.912.912,0,0,0-.911-.91Z" transform="translate(-313.112 -291.315)"/>
          <path id="Path_17" data-name="Path 17" d="M320.757,317.174h-6.27a.983.983,0,1,1,0-1.965h6.27a.983.983,0,1,1,0,1.965ZM314.487,316a.193.193,0,1,0,0,.385h6.27a.193.193,0,1,0,0-.385Z" transform="translate(-310.136 -289.939)"/>
          <path id="Path_18" data-name="Path 18" d="M310.543,263.8a1.1,1.1,0,0,1-1-1.18V250.707l-6.4-12.582a.91.91,0,0,1,.463-1.193.927.927,0,0,1,1.234.333l4.7,9.248v-8.505a1.018,1.018,0,1,1,2.01,0v8.505l4.7-9.25a.929.929,0,0,1,1.234-.331.909.909,0,0,1,.461,1.191l-6.4,12.584v11.908A1.1,1.1,0,0,1,310.543,263.8Zm-6.472-26.187a.25.25,0,0,0-.111.028.19.19,0,0,0-.114.135l6.483,12.747v12.1c0,.235.13.391.214.391s.218-.155.218-.391v-12.1l6.483-12.751a.193.193,0,0,0-.113-.131c-.118-.059-.17-.018-.174-.013l-6.2,12.187v-11.8c0-.235-.132-.39-.218-.39s-.214.156-.214.39v11.8l-6.2-12.187A.126.126,0,0,0,304.072,237.609Z" transform="translate(-303.059 -236.826)"/>
        </g>
      </g>
    </g>
  </g>
</svg>
