<svg xmlns="http://www.w3.org/2000/svg" width="83.32" height="15.563" viewBox="0 0 83.32 15.563">
  <g id="Symbol_16_1" data-name="Symbol 16 – 1" transform="translate(-491.321 -3198)">
    <path id="Path_650" data-name="Path 650" d="M491.019,850.941l1.5-.053a.709.709,0,0,1,.012-.086c1.367-.121,2.764-.241,4.21-.369-.8,1.682-1.5,3.133-2.24,4.723,1.916.383,2.484-.744,3.208-1.578a8.988,8.988,0,0,0,.879-1.377c1.244-2.17,3.461-2.448,5.473-.711,1.016.883,2.1,1.7,3.158,2.546.186-.132.382-.265.571-.4-.214-.877-.418-1.756-.687-2.865,4.36.1,8.689.209,13.13.316-.565,2.2-2.889,3.434-2.638,6,3.5-.89,4.07-4.225,6.246-6.079,2.448,1.161,4.1,3.579,6.872,4.065.187-.19.367-.378.551-.566-1.133-1.235-2.267-2.468-3.7-4.026,6.108-.1,11.985-.2,18.1-.3-.866,2.139-3.308,3.243-2.766,5.934,2.839-1.051,3.842-3.727,5.941-5.485q3.695,2.6,7.376,5.188c.15-.183.3-.361.448-.541-.152-2.565-2.616-3.5-4.527-5.273,3.139-.424,11.843.277,14.71-.087a12.722,12.722,0,0,0-.374-2.619c-3.014.319-11.921-.467-15.13-.164a22.569,22.569,0,0,0,1.085-2.689c.091-.356-.235-.818-.369-1.232-.376.154-.864.212-1.1.48a12.751,12.751,0,0,0-1.5,2.058c-.779,1.329-1.594,1.7-3.133.757-1.343-.824-2.838-1.77-5-1.17.7.69,1.19,1.171,1.87,1.841-5.776.113-11.348.223-17.124.339a22.935,22.935,0,0,0,.8-2.952,4.377,4.377,0,0,0-.422-1.592c-.525.33-1.22.55-1.53,1.01a31.024,31.024,0,0,0-1.643,3.179c-1.386-.757-2.6-1.421-3.806-2.083-.162.2-.322.39-.48.587.414.664.838,1.331,1.459,2.3-6.347-.142-12.5-.157-18.953-.8a36.244,36.244,0,0,0,1.632-3.767,5.336,5.336,0,0,0-.137-1.881,6.854,6.854,0,0,0-1.632,1.156,27.021,27.021,0,0,0-1.714,2.881,35.666,35.666,0,0,0-3.835-1.742c-.581-.188-1.34.167-2.019.273a8.368,8.368,0,0,0,1.108,1.424,24.565,24.565,0,0,0,2.456,1.6c-3.22.309-10.845.925-13.817,1.209" transform="translate(7.792 2356.475)" fill="#e4b6be"/>
  </g>
</svg>
