<svg xmlns="http://www.w3.org/2000/svg" xmlns:xlink="http://www.w3.org/1999/xlink" width="24" height="24" viewBox="0 0 24 24">
  <defs>
    <clipPath id="clip-path">
      <rect id="Rectangle_34" data-name="Rectangle 34" width="24" height="24" transform="translate(264 2726)" fill="#fff" stroke="#707070" stroke-width="1"/>
    </clipPath>
  </defs>
  <g id="Mask_Group_7" data-name="Mask Group 7" transform="translate(-264 -2726)" clip-path="url(#clip-path)">
    <g id="facebook-02" transform="translate(261.364 2723.364)">
      <g id="Group_535" data-name="Group 535">
        <path id="Path_660" data-name="Path 660" d="M7.923,2.636H21.349A5.3,5.3,0,0,1,26.63,7.918V21.343a5.3,5.3,0,0,1-5.281,5.293H7.923a5.3,5.3,0,0,1-5.281-5.293V7.918A5.294,5.294,0,0,1,7.923,2.636Z" fill="#c68080" fill-rule="evenodd"/>
        <path id="Path_661" data-name="Path 661" d="M15.79,11.917v-1.16a.611.611,0,0,1,.641-.689H18.05V7.591H15.815a2.806,2.806,0,0,0-3.033,3.021v1.305H11.343v2.888h1.45V22.02h2.888V14.806h2.139l.1-1.136.169-1.752h-2.3Z" fill="#fefefe" fill-rule="evenodd"/>
      </g>
    </g>
  </g>
</svg>
